<?xml version="1.0" encoding="UTF-8"?>
<svg id="Layer_1" xmlns="http://www.w3.org/2000/svg" version="1.1" viewBox="0 0 160 160">
  <!-- Generator: Adobe Illustrator 30.1.0, SVG Export Plug-In . SVG Version: 2.1.1 Build 136)  -->
  <defs>
    <style>
      .st0 {
        fill: #0037a6;
      }
    </style>
  </defs>
  <path class="st0" d="M113.7,136.06c-6.53,1.91-12.79,3.34-19.63,3.74-5.39.03-38.59-.08-43.05-.07,0,0-5.45.04-5.45.04-7.22-.24-13.64-5.34-17.06-11.49-4.25-7.85-2.25-15.24,1.05-22.92,1.08-2.5,1.55-5.43.38-7.98-2.17-4.87-6.13-9.75-8.56-14.48-2.64-5.36-6.67-10.43-9.5-15.67,0,0-3.52-5.82-3.52-5.82-4.71-7.79-6.74-12.86-5.1-22.3,1.77-6.17,5.98-10.11,10.38-14.41,2.02-1.97,5.36-3.2,8.03-4.05.88-.28,1.75-.46,2.69-.45l4.93.04c19.74.02,54.88.04,74.79.05,3.02.62,7.41,1.45,10.37,2.16,2.99.59,8.61,3.57,11.42,4.89,2.27,1.09,4.36,2.28,6.49,3.64,2.49,1.59,4.66,3.47,6.71,5.58,2.62,2.74,5.89,5.91,8.12,8.96,3.68,5.42,6.37,12.3,7.82,18.64.95,3.64,2.8,8.55,2.26,12.37-.04,4.94.33,11.38-1.84,15.96-2.78,10.54-6.46,18.14-13.96,26.06-2.1,2.15-4.46,4.97-6.89,6.73-5.98,4.35-14.03,7.9-20.85,10.78ZM103.66,107.55c-2.61,1.39-7.29,3.3-10.15,3.3-9.26,0-27.94.03-37.16.06-1.25.06-5.65.07-6.8.4-1.75,1.75-3.74,5.57-3.32,8.08.14.85.83,1.53,1.75,1.54l9.78.13c6.57.1,24.72-.02,31.55-.08,4.31-.03,8.51-.81,12.65-1.87,6.04-1.56,11.66-4.18,17.12-7.13,2.08-1.09,4-2.18,5.74-3.77,4.56-4.16,7.17-8.93,9.62-14.54,6.01-12.88,3.02-28.79-5.37-39.93-7.19-8.83-18.47-13-29.41-14.66,0,0-2.98-.08-2.98-.08-15.95,0-52.35-.02-67.94,0-1.07,0-1.95,0-2.83.57-6.25,4.78-1.45,10.96,1.81,15.86,1.85,2.84,3.46,5.72,5.12,8.69,2.65,4.61,5.43,9.09,8.45,13.42.07.08.31.31.68.36.58.08.98-.37,1.02-.41,1.06-1.58,2.63-3.99,4.41-7,3.85-6.51,4.33-8.84,7.11-11.71,7.54-7.79,16.34-9.91,26.88-9.2,5.16.13,14.36-.51,19.34.75,3.2.68,6.12,2.12,8.75,4.08,5.24,4.09,10.28,9.33,11.69,16.02.88,4.75,1.3,9.54.52,14.35-1.11,10.24-9.38,17.97-18,22.74ZM63.26,91.1h25.58c2.88.17,5.47-.97,7.93-2.3,6.43-3.19,9.34-13.53,2.75-18.03-1.7-1.22-3.47-1.67-5.56-1.76-5.63-.3-11.43-.26-17.07-.02-5.74.19-8.34,2.21-10.81,7.28-1.63,3.3-3.79,6.3-5.45,9.58-.71,1.44-1.34,3.25-1.01,4.84.13.18.56.32.83.33l2.81.08Z"/>
</svg>