<?xml version="1.0" encoding="UTF-8"?>
<svg id="Layer_1" xmlns="http://www.w3.org/2000/svg" version="1.1" viewBox="0 0 160 160">
  <!-- Generator: Adobe Illustrator 30.1.0, SVG Export Plug-In . SVG Version: 2.1.1 Build 136)  -->
  <defs>
    <style>
      .st0 {
        display: none;
      }

      .st0, .st1 {
        fill: #ffd500;
      }

      .st2 {
        fill: #0037a6;
      }
    </style>
  </defs>
  <path class="st0" d="M113.67,136.1c-6.53,1.91-12.79,3.34-19.63,3.74-5.39.03-38.59-.08-43.05-.07l-5.45.04c-7.22-.24-13.64-5.34-17.06-11.49-4.25-7.85-2.25-15.24,1.05-22.92,1.08-2.5,1.55-5.43.38-7.98-2.17-4.87-6.13-9.75-8.56-14.48-2.64-5.36-6.67-10.43-9.5-15.67l-3.52-5.82c-4.71-7.79-6.74-12.86-5.1-22.3,1.77-6.17,5.98-10.11,10.38-14.41,2.02-1.97,5.36-3.2,8.03-4.05.88-.28,1.75-.46,2.69-.45l4.93.04c19.74.02,54.88.04,74.79.05,3.02.62,7.41,1.45,10.37,2.16,2.99.59,8.61,3.57,11.42,4.89,2.27,1.09,4.36,2.28,6.49,3.64,2.49,1.59,4.66,3.47,6.71,5.58,2.62,2.74,5.89,5.91,8.12,8.96,3.68,5.42,6.37,12.3,7.82,18.64.95,3.64,2.8,8.55,2.26,12.37-.04,4.94.33,11.38-1.84,15.96-2.78,10.54-6.46,18.14-13.96,26.06-2.1,2.15-4.46,4.97-6.89,6.73-5.98,4.35-14.03,7.9-20.85,10.78h-.03ZM103.63,107.59c-2.61,1.39-7.29,3.3-10.15,3.3-9.26,0-27.94.03-37.16.06-1.25.06-5.65.07-6.8.4-1.75,1.75-3.74,5.57-3.32,8.08.14.85.83,1.53,1.75,1.54l9.78.13c6.57.1,24.72-.02,31.55-.08,4.31-.03,8.51-.81,12.65-1.87,6.04-1.56,11.66-4.18,17.12-7.13,2.08-1.09,4-2.18,5.74-3.77,4.56-4.16,7.17-8.93,9.62-14.54,6.01-12.88,3.02-28.79-5.37-39.93-7.19-8.83-18.47-13-29.41-14.66l-2.98-.08c-15.95,0-52.35-.02-67.94,0-1.07,0-1.95,0-2.83.57-6.25,4.78-1.45,10.96,1.81,15.86,1.85,2.84,3.46,5.72,5.12,8.69,2.65,4.61,5.43,9.09,8.45,13.42.07.08.31.31.68.36.58.08.98-.37,1.02-.41,1.06-1.58,2.63-3.99,4.41-7,3.85-6.51,4.33-8.84,7.11-11.71,7.54-7.79,16.34-9.91,26.88-9.2,5.16.13,14.36-.51,19.34.75,3.2.68,6.12,2.12,8.75,4.08,5.24,4.09,10.28,9.33,11.69,16.02.88,4.75,1.3,9.54.52,14.35-1.11,10.24-9.38,17.97-18,22.74l-.03.03h0ZM63.23,91.14h25.58c2.88.17,5.47-.97,7.93-2.3,6.43-3.19,9.34-13.53,2.75-18.03-1.7-1.22-3.47-1.67-5.56-1.76-5.63-.3-11.43-.26-17.07-.02-5.74.19-8.34,2.21-10.81,7.28-1.63,3.3-3.79,6.3-5.45,9.58-.71,1.44-1.34,3.25-1.01,4.84.13.18.56.32.83.33,0,0,2.81.08,2.81.08Z"/>
  <path class="st2" d="M154.98,64.11c-1.45-6.34-4.14-13.22-7.82-18.64-2.23-3.05-5.5-6.22-8.12-8.96-2.05-2.11-4.22-3.99-6.71-5.58-2.13-1.36-4.22-2.55-6.49-3.64-2.81-1.32-8.43-4.3-11.42-4.89-2.96-.71-7.35-1.54-10.37-2.16-19.91-.01-55.05-.03-74.79-.05l-4.93-.04c-.94-.01-1.81.17-2.69.45-2.67.85-6.01,2.08-8.03,4.05-4.4,4.3-8.61,8.24-10.38,14.41-1.64,9.44.39,14.51,5.1,22.3l3.52,5.82c2.33,4.32,5.46,8.52,7.98,12.86h44.09c.75-1.25,1.49-2.51,2.13-3.82,2.47-5.07,5.07-7.09,10.81-7.28,5.64-.24,11.44-.28,17.07.02,2.09.09,3.86.54,5.56,1.76,3.24,2.21,4.17,5.83,3.53,9.32h19.03c.05-3.23-.32-6.46-.91-9.66-1.41-6.69-6.45-11.93-11.69-16.02-2.63-1.96-5.55-3.4-8.75-4.08-4.98-1.26-14.18-.62-19.34-.75-10.54-.71-19.34,1.41-26.88,9.2-2.78,2.87-3.26,5.2-7.11,11.71-1.78,3.01-3.35,5.42-4.41,7-.04.04-.44.49-1.02.41-.37-.05-.61-.28-.68-.36-3.02-4.33-5.8-8.81-8.45-13.42-1.66-2.97-3.27-5.85-5.12-8.69-3.26-4.9-8.06-11.08-1.81-15.86.88-.57,1.76-.57,2.83-.57,15.59-.02,51.99,0,67.94,0l2.98.08c10.94,1.66,22.22,5.83,29.41,14.66,5.6,7.43,8.77,16.99,8.49,26.35h19.71c0-1.24,0-2.44,0-3.56.54-3.82-1.31-8.73-2.26-12.37h0Z"/>
  <path class="st1" d="M137.56,80.04c-.13,4.69-1.12,9.32-3.12,13.63-2.45,5.61-5.06,10.38-9.62,14.54-1.74,1.59-3.66,2.68-5.74,3.77-5.46,2.95-11.08,5.57-17.12,7.13-4.14,1.06-8.34,1.84-12.65,1.87-6.83.06-24.98.18-31.55.08l-9.78-.13c-.92-.01-1.61-.69-1.75-1.54-.42-2.51,1.57-6.33,3.32-8.08,1.15-.33,5.55-.34,6.8-.4,9.22-.03,27.9-.06,37.16-.06,2.86,0,7.54-1.91,10.15-3.3h0l.03-.03c8.62-4.77,16.89-12.5,18-22.74.26-1.58.37-3.16.4-4.74h-19.03c-.65,3.63-3.01,7.13-6.29,8.76-2.46,1.33-5.05,2.47-7.93,2.3h-25.58l-2.81-.08c-.27-.01-.7-.15-.83-.33-.33-1.59.3-3.4,1.01-4.84,1.01-1.99,2.2-3.89,3.34-5.81H19.83c.55.95,1.08,1.89,1.55,2.86,2.43,4.73,6.39,9.61,8.56,14.48,1.17,2.55.7,5.48-.38,7.98-3.3,7.68-5.3,15.07-1.05,22.92,3.42,6.15,9.84,11.25,17.06,11.49l5.45-.04c4.46-.01,37.66.1,43.05.07,6.84-.4,13.1-1.83,19.63-3.74h.03c6.82-2.88,14.87-6.43,20.85-10.78,2.43-1.76,4.79-4.58,6.89-6.73,7.5-7.92,11.18-15.52,13.96-26.06,1.68-3.55,1.84-8.22,1.84-12.45h-19.71Z"/>
</svg>