<?xml version="1.0" encoding="UTF-8"?>
<svg id="Layer_1" xmlns="http://www.w3.org/2000/svg" version="1.1" viewBox="0 0 769 137">
  <!-- Generator: Adobe Illustrator 30.1.0, SVG Export Plug-In . SVG Version: 2.1.1 Build 136)  -->
  <defs>
    <style>
      .st0 {
        fill: #fed60a;
      }

      .st1 {
        fill: #fed502;
      }
    </style>
  </defs>
  <rect class="st0" x="133.94" y="7.09" width="3.64" height="124.43"/>
  <g>
    <rect class="st1" x="350.76" y="6.46" width="54.94" height="47.48"/>
    <rect class="st1" x="350.76" y="83" width="54.94" height="47.53"/>
  </g>
  <path class="st0" d="M627.03,105.15c-.74,6.26,4.02,29.95-5.4,23.34l-.77-14.66-10.81,14.36c-1.01,1.34-4.3,1.47-5.92.43l.11-23.49c.4-1.33,5.03-1.34,5.36-.01l.7,15,11.06-14.9c.89-1.2,5.21-1.49,5.67-.08Z"/>
  <path class="st0" d="M595.41,128.47c-.1,1.13-4.6,1.12-5.06.08-1.24-2.77.13-6.27-.75-9.46-3.39-.45-6.84-.44-10.25-.02-.94,3.31.57,6.49-.77,9.55-.94,1.16-3.71.68-5.32.09v-23.61c.8-1.15,4.36-1.23,5.17-.3,1.47,2.45.03,5.84.95,8.71,3.41.3,6.69.38,10.18-.03.59-2.92.18-5.39.37-8.67,1.71-.78,3.54-.58,5.72-.12,0,7.68.55,15.33-.24,23.79Z"/>
  <path class="st0" d="M493.08,115.87c-1.18,4.25,9.12,9.08,9.12,9.65,0,1.15.32,3.2-1.05,3.83-5.4,2.49-11.88-8.09-14.97-11.52l-.79,10.72c-.67,1.01-3.98,1.03-5.34-.03l-.06-23.43c1.04-1.28,4.65-1.14,5.42,0l.8,9.06,8.52-9.23c1.38-1.5,4.64-.49,6.1-.2-1.78,4.5-6.42,6.36-7.75,11.16Z"/>
  <path class="st0" d="M546.23,124.91c-2.33-1.93-7.94-1.67-10.35-.16-1.53.96-.99,3.96-2.65,4.19-1.23.17-4.3.78-4.8-.66l9.56-23.3c.91-1.21,4.97-.95,6.36-.05l9.76,23.61c-2.19,1.27-3.61.48-5.28.37-1.43-.09-.88-2.58-2.59-4.01ZM543.85,118.68c-.91-2.82-1.22-4.27-2.84-6.09-1.58,2.13-2.13,3.97-2.62,6.25,1.83.62,3.58.84,5.46-.16Z"/>
  <path class="st0" d="M526.68,113.4c-.81,8.43-11.24,7.32-11.83,7.72-1.75,1.19.42,6.9-1.57,7.79-1.26.56-2.71.23-4.87-.02l-.2-24.17c3.97-.55,8.14-.79,12.21.1s6.64,4.71,6.27,8.58ZM514.74,109.97c-1.12,1.82-1.22,5.29.63,5.75,1.19.3,3.25.19,4.62-1.08,1.01-.94.97-3.59-.49-4.51-.99-.62-3.9-1.54-4.76-.15Z"/>
  <path class="st0" d="M474.74,104.91l-9.57,20.36c-1.67,3.55-5.91,5.65-9.46,3.94-.97-.47-.84-3.6-.36-4.53.52-1,2.85-.41,4.76-.94l-8.96-19c1.41-.29,5-1.36,5.9.24l6.44,11.43c2.84-3.97,2.89-8.26,5.46-11.44,1.04-1.28,4.09-.74,5.8-.07Z"/>
  <rect class="st0" x="559" y="104.34" width="5.89" height="24.82"/>
  <circle class="st0" cx="558.2" cy="99.54" r="2.52"/>
  <circle class="st0" cx="565.64" cy="99.54" r="2.51"/>
  <path class="st0" d="M769,55.17v24.77c-1.73,0-3.62.2-5.7-.33l-.57-15.77-10.77,15.06c-.97,1.35-5.72,1.74-5.87.2-.77-8.16-.16-15.82-.25-23.56,2.25-.61,3.92-.56,5.63.05l.68,14.75,11.42-14.6c1.14-1.46,4.11-.26,5.42-.56Z"/>
  <path class="st0" d="M596.22,79.18c-.65,1.31-4.37.84-5.58.26-.7-4.92.6-9.45-.76-14.71l-10.82,14.36c-1.16,1.54-3.96.88-5.83.49v-24.08c1.99-.52,3.65-.54,5.56-.04l.44,15.73,11.54-15.34c1.13-1.5,4.1-.62,5.63-.17l-.17,23.51Z"/>
  <path class="st0" d="M655.26,79.21c-.59,1.31-4.4.8-5.53.2-.4-3.22.36-6.04-.52-9.43-3.55-.65-6.82-.72-10.13.04l-.51,9.11c-.08,1.35-4.2,1.18-5.47.19l-.08-23.81c2.15-.55,3.75-.48,5.58,0l.44,8.52c3.37.7,6.64.66,10.11.03l.83-8.23c.74-1.2,3.92-.69,5.47-.16l-.2,23.56Z"/>
  <path class="st0" d="M524.86,66.2c.21,2.76,4.04,4.54,2.56,7.95-3.33,7.71-9.59,5.77-19.01,5.48l.03-24.17c5.64-.42,14.13-1.53,17.26,3.69,1.18,1.97-.99,5.07-.84,7.05ZM519.87,62.54c0-1.6-1.3-2.9-2.9-2.9s-2.9,1.3-2.9,2.9,1.3,2.9,2.9,2.9,2.9-1.3,2.9-2.9ZM521.19,72.37c.2-3.19-4.65-3.77-6.31-2.39-1.23,1.03-.59,3.78-.12,4.93,2.55.32,6.23.78,6.43-2.54Z"/>
  <path class="st0" d="M475.22,67.56c0,7.17-5.81,12.98-12.98,12.98s-12.98-5.81-12.98-12.98,5.81-12.98,12.98-12.98,12.98,5.81,12.98,12.98ZM469.63,67.57c0-4.07-3.3-7.37-7.37-7.37s-7.37,3.3-7.37,7.37,3.3,7.37,7.37,7.37,7.37-3.3,7.37-7.37Z"/>
  <path class="st0" d="M729.8,66.92c3.04,6.42,10.03,9.07,9.44,8.21.51.73,1.17,2.9.22,4.16-1.64,2.15-5.9.7-7.61-1.18l-9.08-9.98c-1.4,3.95.27,7.23-.84,10.99-.39,1.31-4.26,1.19-5.42.17v-23.55c1.16-1.02,5.04-1.12,5.41.18,1.04,3.69-.47,6.99.84,10.46l9.15-10.44c1.45-1.65,4.64-.96,6.62-.34l-8.73,11.32Z"/>
  <path class="st0" d="M678.39,75.66c-2.2-1.91-7.57-1.45-10.02-.24-1.7.84-1.32,3.74-2.48,4.11-1.44.46-4.24,1.08-5.23-.5,3.04-7.68,6.04-15.62,9.46-23.01.69-1.49,5.12-1.26,6.48-.23l9.52,23.24c-.53,1.46-3.17.73-4.47.87-1.95.21-1.36-2.57-3.27-4.24ZM676.17,69.69c-.87-3.19-1.58-4.66-2.79-6.47-1.57,2.18-2.52,4.14-2.59,6.66,2.11.11,3.42.45,5.38-.19Z"/>
  <path class="st0" d="M711.23,55.82l-9.5,20.14c-1.79,3.79-6.62,6.02-9.94,3.8-.54-.79-.3-3.28-.12-4.05.26-1.16,2.66-.46,4.72-1.08l-8.64-18.89c1.56-.88,5.16-1.49,6.15.34l6.11,11.23,5.15-11.3c.77-1.68,4.14-1.27,6.06-.2Z"/>
  <path class="st0" d="M490.82,74.37c3.31,1.49,6.18.05,9.25-.17,1.15-.08.87,3.02.72,4.18-.21,1.6-2.49,1.65-4.31,1.93-8.47,1.3-15.51-4.4-15.76-11.95-.29-8.55,6.78-14.59,15.37-13.45,1.9.25,4.05.32,4.38,1.79,2.2,9.99-7.85-1.68-12.65,6.7-2.01,3.5-1.47,8.96,3,10.97Z"/>
  <path class="st0" d="M560.19,61.1c-2.47,7.35,4.03,22.78-6.15,18.39l-.22-18.4c-2-1.24-4.46-.37-6.56-.98-1.16-.33-1.25-4.23-.1-4.66,6-.5,12.71-.5,19.04-.07,1.52.1,1.43,4.33.26,4.84-1.43.63-5.14-.64-6.27.86Z"/>
  <rect class="st0" x="534.47" y="55.16" width="5.93" height="24.79"/>
  <rect class="st0" x="611.76" y="55.16" width="5.89" height="24.79"/>
  <path class="st0" d="M471.15,30.3l-1.27-12.7c-1.9,1.46-5.04,13.25-9.31,8.76-2.42-2.55-2.73-6.1-5.55-8.71l-.66,12.71c-1.63.63-3.3.71-5.52.08.05-7.65-.5-15.47.23-23.53.14-1.53,5.13-1.36,5.91-.01l7.55,13.15,8.1-13.42c.83-1.38,4.62-.96,5.66.03l.03,23.58c-1.16.63-4.29,1.14-5.16.05Z"/>
  <path class="st0" d="M521.22,30.1c-.73,1.28-4.25.77-5.51.26l-.53-9.43c-3.54-.7-6.8-.72-10.16.03l-.58,9.08c-.09,1.44-3.69.85-5.53.37,0-7.72-.44-15.35.16-23.46.11-1.48,5.19-1.51,5.5-.05.58,2.8-.3,5.31.51,8.04,3.34.63,6.59.54,10.03.06l.75-8.36c.77-1.13,4.37-1.09,5.49.03l-.13,23.43Z"/>
  <path class="st0" d="M741.3,18.45c0,7.17-5.81,12.98-12.98,12.98s-12.98-5.81-12.98-12.98,5.81-12.98,12.98-12.98,12.98,5.81,12.98,12.98ZM735.71,18.45c0-4.07-3.3-7.37-7.37-7.37s-7.37,3.3-7.37,7.37,3.3,7.37,7.37,7.37,7.37-3.3,7.37-7.37Z"/>
  <path class="st0" d="M707.52,16.96c.22,2.93,3.89,4.84,2.34,8.38-3.24,7.41-10.09,5.27-18.82,5.32l-.06-24.31c8.72-.57,12.96-1.58,17.25,3.95,1.54,1.98-.9,4.18-.71,6.66ZM702.47,13.49c0-1.61-1.31-2.92-2.92-2.92s-2.92,1.31-2.92,2.92,1.31,2.92,2.92,2.92,2.92-1.31,2.92-2.92ZM701.29,20.46c-2.26-.33-4.39-.47-4.39.99,0,1.54-.37,2.99.1,3.86.75,1.38,2.56.68,3.98.56,1.82-.15,2.78-1.09,2.89-2.37s-.49-2.73-2.59-3.04Z"/>
  <path class="st0" d="M599.39,14.55c.82,1.9,7.72.4,8.35,1.26.71.96.47,2.64.37,3.68-.24,2.33-6.28.49-8.22,1.56-.91.5-.95,2.78-.32,3.95.93,1.74,8.22-.39,9.27,1.43.56.97.48,4.11-.77,4.21-5.17.42-9.68.3-14.62-.04l-.03-24.36c4.89-.3,9.57-.53,14.63.05,1.08.12,1.1,3.85.17,4.4-2.17,1.28-5.34-.16-7.97.7-1.31.43-1.18,2.41-.85,3.17Z"/>
  <path class="st0" d="M635.15,14.49c-.19,8.74-10.74,7.97-11.65,8.4-2.06.98-.21,6.79-1.45,7.52s-3.55.61-5.22-.06l-.13-24.15c4.17-.35,7.57-.43,11.24.1,4.49.65,7.3,4.23,7.21,8.19ZM622.9,11.88c-.91,2.2-.69,5.28.72,5.5,1.79.28,3.74.09,4.58-.76,1.54-1.56.97-4.16-.39-4.86-1.23-.63-4.31-1.3-4.9.13Z"/>
  <path class="st0" d="M658.83,11.86c-4.81-.86-8.48-1.55-11.11,1.3-2.44,2.65-2.63,7.08-.5,10,5.59,7.68,12.53-3.25,12.73,5.32.05,2.07-1.73,2.25-3.77,2.64-8.31,1.56-15.59-3.71-16.32-10.87-.92-9.09,6.28-15.57,15.19-14.46,1.63.2,3.56.35,4.24,1.27.74.99.77,5.01-.46,4.79Z"/>
  <path class="st0" d="M561.1,11.85c-4.14-.62-7.82-1.7-10.7,1.05-2.61,2.49-2.98,7.08-.9,10.09,5.32,7.71,12.73-2.73,12.84,5.56.03,2.31-1.98,2.29-4.24,2.63-8.29,1.22-15.4-3.84-15.9-11.71-.51-8.03,6.21-14.66,14.86-13.71,1.75.19,3.65.24,4.53,1.29s.89,5.02-.49,4.82Z"/>
  <path class="st0" d="M677.19,30.17c-.31,1.16-3.79.69-5.23.33l-.46-18.91c-2.07-.69-4.3-.05-6.47-.62-1.18-.31-1.29-4.57-.06-4.68,6.51-.59,12.55-.33,19.13-.12,1.15.04,1.43,3.96.48,4.56-1.76,1.12-4.37.08-6.66.72l-.74,18.73Z"/>
  <path class="st1" d="M579.75,29.8c-.05,1.81-3.97,1.07-5.46.69l-.34-18.66c-1.91-1.38-4.53.22-6.73-1.13-.95-.59-.8-3.91.13-4.39,5.87-.6,12.41-.32,18.78-.19,1.66.04,1.84,3.88.66,4.6-2,1.21-4.38.07-6.54.73l-.51,18.34Z"/>
  <rect class="st0" x="484.65" y="6" width="5.93" height="24.83"/>
  <rect class="st0" x="529.65" y="6" width="6" height="24.83"/>
  <path class="st1" d="M264,0c.26.63.85.88,1.88,1.06,33.06,5.87,56.93,34.43,56.93,67.44,0,33.01-23.87,61.57-56.93,67.43-1.03.18-1.61.44-1.88,1.07h-21c-.43-.9-1.41-1-2.71-1.25-32.59-6.32-55.89-34.64-55.89-67.25,0-32.61,23.3-60.92,55.89-67.26,1.3-.25,2.29-.31,2.71-1.24h21ZM293.84,68.5c0-22.22-18.01-40.23-40.23-40.23s-40.23,18.01-40.23,40.23,18.01,40.23,40.23,40.23,40.23-18.01,40.23-40.23Z"/>
  <path class="st0" d="M0,110V11c11.77,6.69,20.2,17.99,21.86,32.06l3.42,28.91c-5.73.34-8.71,3.6-8.06,8.42.42,3.07,6.04,7.19,9.52,5.2,15.35-25.89,10.09-40.69,9.32-67.55-.18-6.3.22-12.4,5.06-16.99,3.97,3.77,5.27,8.74,5.06,13.98l-1.45,36.03c-.48,11.95,4.28,23.59,10.29,34.05,1.44,2.51,6.56,0,8.16-1.48,1.98-1.85,2.59-5.32.99-8.24-1.13-2.05-3.76-2.99-7.25-3.6l3.45-28.7c1.62-13.44,9.45-25.37,21.96-31.94l.06,98.13-22.77.41c-2.36,9.86-7.67,18.02-15.92,24.03-.88.64-1.34,2.01-2.28,2.26-1.22.32-1.58-1.36-2.46-1.99-8.52-6.03-13.79-14.19-16.32-24.38-8.39.31-15.52-.64-22.61.39ZM17.77,66.5l-2.75-22.46c-.82-6.74-3.13-13.08-8.06-18.09l-.21,48.05c0,1.47,1.99,1.64,2.72,1.38,2.38-.87,2.13-5.13,8.29-8.87ZM73.52,75.41c.44-.04,1.9-.26,1.9-1.32l-.23-47.69c-9.06,6.8-9.4,30.07-10.32,40.37,6.21,4.01,5.67,8.94,8.66,8.64ZM41.24,91.83c2.88-.34,4.56-3.04,7.15-3.95-2.83-5.17-4.68-9.66-7.21-15.26-2.75,5.23-4.25,10-7.37,15.22,2.76.84,4.87,4.29,7.43,3.99ZM23.06,92.61c-13.78-2.57-9.42-11.29-15.42-10.11-1.61.31-.73,16.89-.68,20.04,5.2.43,9.74.25,14.85.13.61-3.34,1.18-6.09,1.25-10.06ZM75.46,102.4c-.04-7.04.42-12.83-.21-19.16-.13-1.29-3.35-1.24-3.85.03-2.08,5.28-6.25,8.44-12.19,9.27-.13,3.59.67,6.53,1.14,10.09,5.23.12,9.9.45,15.11-.24ZM37.46,102.19c-.27-3.93-3.38-8.12-6.98-7.05-1.49,1.79-1.23,5.36-1.08,7.31,2.87.5,5.38.68,8.07-.25ZM52.86,102.36c.15-2.78.26-6.69-1.57-7.4-4.18.07-6.76,4.18-6.31,7.45,2.76.46,5.06.72,7.88-.05ZM37.34,109.73c-3.04-.23-4.8-.51-7.22.22,1.3,4.96,3.04,9.24,7.09,13.16.8-4.61.52-8.85.13-13.39ZM51.74,110.31c-1.94-1.3-6.64-1.23-6.88.4-.58,3.99-.53,7.55.17,11.93,3.62-2.8,6.3-8.06,6.71-12.33Z"/>
</svg>