<?xml version="1.0" encoding="UTF-8"?>
<svg id="Layer_1" xmlns="http://www.w3.org/2000/svg" version="1.1" viewBox="0 0 487.92 146.16">
  <!-- Generator: Adobe Illustrator 30.1.0, SVG Export Plug-In . SVG Version: 2.1.1 Build 136)  -->
  <defs>
    <style>
      .st0 {
        fill: #9ca3af;
      }
    </style>
  </defs>
  <g>
    <path class="st0" d="M77.42,145.83c-10.32.58-20.27-.85-29.8-4.41,8.24-45.71,52.87-75.67,98.35-65.44-1.31,37.13-31.05,67.75-68.55,69.85Z"/>
    <path class="st0" d="M78.58.21c21.42,0,40.83,12.41,53.7,30.25-6.84,9.33-8.9,20.51-8.89,32.29-8.95-11.83-13.88-26.71-15.31-41.72-13.08,12.08-13.26,30.29-8.37,46.39-12.02-9.05-20.75-21.91-26.22-35.87-9.27,15.19-4.49,32.66,4.62,46.84-13.99-5.29-26.16-15.46-35.03-27.2-4.77,17.23,4.69,32.8,17.36,43.75-15.11-1.27-29.03-7.44-41.2-16.35.06,17.71,13.33,29.94,28.51,37.08-11.15,2.47-23.86,1.48-34.93-1.41C3.51,100.65-.76,84.68.25,68.46,2.48,32.39,31.11,3.28,67.21.42c.43-.03.95.19,1.29-.22h10.08Z"/>
  </g>
  <polygon class="st0" points="487.82 50.33 487.82 91.12 480.76 91.12 465.25 69.25 465.1 91.14 455.62 91.12 455.62 50.3 462.61 50.31 478.2 72.39 478.23 50.28 487.82 50.33"/>
  <path class="st0" d="M376.85,91.16l-7.67-13.44c-1.42-.13-2.71-.05-4.26-.04l-.07,13.44h-9.57s-.01-40.82-.01-40.82h17.15c7.84.28,13.57,6.82,13.2,14.65-.36,4.74-3.3,8.68-7.59,10.91l8.69,15.23-9.87.07ZM372.59,69.4c2.34-.4,3.59-3.08,3.51-5.09s-1.45-4.37-3.63-4.71c-2.65-.42-5.23.02-7.93-.16l-.02,10.14c2.67-.18,5.26.3,8.07-.17Z"/>
  <polygon class="st0" points="448.71 75.14 434.21 75.16 434.16 81.95 450.19 81.99 450.2 91.14 424.62 91.14 424.6 50.3 450.2 50.28 450.19 59.44 434.17 59.47 434.15 66.32 448.72 66.34 448.71 75.14"/>
  <polygon class="st0" points="348.81 75.11 334.26 75.17 334.26 81.96 350.22 81.99 350.2 91.14 324.7 91.13 324.69 50.29 350.22 50.29 350.25 59.42 334.24 59.49 334.26 66.34 348.78 66.35 348.81 75.11"/>
  <path class="st0" d="M319.27,71.48c-.1,5.47-2.14,10.07-5.79,13.86-3.37,3.5-7.7,5.72-12.71,5.74l-18.05.06v-40.86s17.5.06,17.5.06c6.33.02,11.93,3.35,15.38,8.53,2.62,3.73,3.75,7.95,3.66,12.62ZM309.71,71.98c.11-3.75-.68-7.12-3.12-9.84-1.75-1.88-4.21-3-6.84-3.01h-7.49s0,22.82,0,22.82c2.83-.02,5.48.13,8.16-.05,5.39-.37,9.12-4.5,9.29-9.92Z"/>
  <polygon class="st0" points="276.24 91.05 269.26 91.15 253.68 69.12 253.61 91.14 244.1 91.12 244.09 50.3 251.06 50.3 266.64 72.28 266.72 50.31 276.24 50.29 276.24 91.05"/>
  <path class="st0" d="M228.03,84.63l-15.19-.03-1.9,6.52-10.27-.02,13.84-40.78,12.11-.04,13.86,40.84-10.25.02-2.22-6.51ZM225.07,75.71l-4.66-14.51-4.7,14.6,9.35-.09Z"/>
  <path class="st0" d="M418.4,85.17c-3.55,7.12-13.31,7.61-20.1,5.9-4.58-1.28-8.15-4.43-9.8-9.05l8.09-4.79c1.27,3.29,3.9,5.36,7.24,5.74,2.26.22,5.93.19,6.76-2.21.65-1.86-.82-3.54-2.67-4.37-2.46-1.09-4.96-1.76-7.52-2.58-5.75-1.83-10.22-5.52-10.1-12.01.09-5.08,2.98-9.46,7.86-11.22,8.31-3.01,17.16.45,21.03,8.48l-7.97,4.73c-1.03-1.26-1.76-2.69-3.16-3.63-1.95-1.29-4.83-1.49-6.84-.44-1.08.56-1.66,1.69-1.7,2.64-.06,1.17.72,2.13,1.82,2.71,5.4,2.84,9.1,2.87,13.64,5.52,2.08,1.21,3.41,2.88,4.08,5.28.83,2.98.79,6.4-.65,9.28Z"/>
</svg>