<?xml version="1.0" encoding="UTF-8"?>
<svg id="Layer_1" xmlns="http://www.w3.org/2000/svg" version="1.1" viewBox="0 0 86.49 45.58">
  <!-- Generator: Adobe Illustrator 30.1.0, SVG Export Plug-In . SVG Version: 2.1.1 Build 136)  -->
  <defs>
    <style>
      .st0 {
        fill: #9ca3af;
      }
    </style>
  </defs>
  <path class="st0" d="M24.59,30.23h3.84v14.99h-3.84v-14.99ZM58.9,34.55c-.12-.12-1.32-.84-3.24-.84-2.4,0-4.2,1.68-4.2,3.96s1.68,3.96,4.2,3.96c1.8,0,3-.72,3.24-.84v4.08c-.48.12-1.8.48-3.48.48-4.32,0-8.04-2.88-8.04-7.8,0-4.44,3.36-7.8,8.04-7.8,1.8,0,3.12.48,3.48.48v4.32ZM19.31,34.55c-.12-.12-1.32-.84-3.24-.84-2.4,0-4.2,1.68-4.2,3.96s1.68,3.96,4.2,3.96c1.8,0,3-.72,3.24-.84v4.08c-.48.12-1.8.48-3.48.48-4.2,0-8.04-2.88-8.04-7.8,0-4.44,3.36-7.8,8.04-7.8,1.8,0,3.12.48,3.48.48v4.32ZM78.69,37.79c0,4.32-3.36,7.8-7.92,7.8s-7.92-3.48-7.92-7.8,3.36-7.8,7.92-7.8,7.92,3.48,7.92,7.8ZM70.77,33.83c-2.28,0-3.96,1.8-3.96,3.96s1.68,3.96,3.96,3.96,3.96-1.8,3.96-3.96-1.68-3.96-3.96-3.96ZM42.7,33.71s-1.68-.48-3-.48c-1.56,0-2.4.48-2.4,1.2,0,.96,1.08,1.2,1.68,1.44l1.08.36c2.4.84,3.6,2.52,3.6,4.32,0,3.72-3.36,5.04-6.24,5.04-2.04,0-3.96-.36-4.08-.36v-3.48c.36.12,1.92.6,3.6.6,1.92,0,2.76-.6,2.76-1.44,0-.72-.72-1.2-1.68-1.44-.24-.12-.6-.24-.84-.24-2.16-.72-3.84-1.92-3.84-4.44,0-2.76,2.16-4.68,5.64-4.68,1.8,0,3.6.48,3.72.48v3.12Z"/>
  <path id="A" class="st0" d="M3.84,14.15c.01-1.05-.82-1.91-1.87-1.92-.02,0-.03,0-.05,0C.87,12.22.01,13.06,0,14.11c0,.02,0,.03,0,.05v3.96c-.01,1.05.82,1.91,1.87,1.92.02,0,.03,0,.05,0,1.05.01,1.91-.82,1.92-1.87,0-.02,0-.03,0-.05v-3.96Z"/>
  <path class="st0" d="M14.15,9c.01-1.05-.82-1.91-1.87-1.92-.02,0-.03,0-.05,0-1.08,0-1.8.84-1.8,1.92v9.12c-.01,1.05.82,1.91,1.87,1.92.02,0,.03,0,.05,0,1.05.01,1.91-.82,1.92-1.87,0-.02,0-.03,0-.05v-9.12h-.12ZM24.59,1.92C24.6.87,23.77.01,22.72,0c-.02,0-.03,0-.05,0-1.05-.01-1.91.82-1.92,1.87,0,.02,0,.03,0,.05v19.91c-.01,1.05.82,1.91,1.87,1.92.02,0,.03,0,.05,0,1.05.01,1.91-.82,1.92-1.87,0-.02,0-.03,0-.05V1.92ZM34.91,9c.01-1.05-.82-1.91-1.87-1.92-.02,0-.03,0-.05,0-1.05-.01-1.91.82-1.92,1.87,0,.02,0,.03,0,.05v9.12c-.01,1.05.82,1.91,1.87,1.92.02,0,.03,0,.05,0,1.05.01,1.91-.82,1.92-1.87,0-.02,0-.03,0-.05v-9.12Z"/>
  <path id="A1" data-name="A" class="st0" d="M45.22,14.15c.01-1.05-.82-1.91-1.87-1.92-.02,0-.03,0-.05,0-1.05-.01-1.91.82-1.92,1.87,0,.02,0,.03,0,.05v3.96c-.01,1.05.82,1.91,1.87,1.92.02,0,.03,0,.05,0,1.05.01,1.91-.82,1.92-1.87,0-.02,0-.03,0-.05v-3.96Z"/>
  <path class="st0" d="M55.54,9c0-1.06-.86-1.92-1.92-1.92s-1.92.86-1.92,1.92v9.12c0,1.06.86,1.92,1.92,1.92s1.92-.86,1.92-1.92v-9.12ZM65.85,1.92C65.85.86,65,0,63.94,0s-1.92.86-1.92,1.92v19.91c0,1.06.86,1.92,1.92,1.92s1.92-.86,1.92-1.92V1.92ZM76.17,9c0-1.06-.86-1.92-1.92-1.92s-1.92.86-1.92,1.92v9.12c0,1.06.86,1.92,1.92,1.92s1.92-.86,1.92-1.92v-9.12ZM86.49,14.15c0-1.06-.86-1.92-1.92-1.92s-1.92.86-1.92,1.92v3.96c0,1.06.86,1.92,1.92,1.92s1.92-.86,1.92-1.92v-3.96Z"/>
</svg>