<?xml version="1.0" encoding="UTF-8"?>
<svg id="Layer_1" xmlns="http://www.w3.org/2000/svg" version="1.1" viewBox="0 0 693.39 142.46">
  <!-- Generator: Adobe Illustrator 30.1.0, SVG Export Plug-In . SVG Version: 2.1.1 Build 136)  -->
  <defs>
    <style>
      .st0 {
        fill: #9ca3af;
      }
    </style>
  </defs>
  <polygon class="st0" points="693.39 48.2 693.39 71.96 674.39 72.03 674.38 139.44 645.15 139.37 645.15 .03 674.38 -.04 674.38 48.2 693.39 48.2"/>
  <path class="st0" d="M112.38,54.05c3.86,26.96-.69,52.91-23.2,69.97-11.99,9.08-26.37,14.95-41.78,15.01l-47.25.17V0l53.33.25c29.96.14,54.11,24.82,58.91,53.8h-.01ZM76.71,49.72c-9.57-20.73-22.25-24.18-44.32-22.62v85.04c6.68-.09,13.57.69,19.97-1.1,25.66-7.17,32.98-37.85,24.34-61.32h.01Z"/>
  <path class="st0" d="M518.64,115l-55.48-.07-9.52,24.21-33.05-.02L472.85.05l36.56-.05,51.26,139.01-33.32.28-8.71-24.28h0ZM510.68,91.69l-19.88-58-19.41,58.12s39.29-.12,39.29-.12Z"/>
  <path class="st0" d="M198.06,139.52l-.92-14c-6.22,9.9-14.49,15.56-25.72,16.75-28.23,2.99-50.81-20.87-49.83-49.16.92-26.36,16.45-46.39,43.73-47.99,13.07-.76,24.24,4.79,31.97,15.34l.49-12.26,26.36.07v91.06l-26.08.19h0ZM195.97,93.75c0-13.02-10.55-23.57-23.57-23.57s-23.57,10.55-23.57,23.57,10.55,23.57,23.57,23.57,23.57-10.55,23.57-23.57Z"/>
  <path class="st0" d="M382.05,139.52l-.85-13.88c-10.22,17.84-33.03,20.82-49.14,12.67-24.45-12.36-31.94-39.92-22.46-64.99,6.3-16.67,21.09-26.88,38.76-28.15,13.38-.96,25.08,4.28,32.95,15.29l.48-12.26,26.36.07v91.06l-26.1.19h0ZM380.05,93.75c0-13.02-10.55-23.57-23.57-23.57s-23.57,10.55-23.57,23.57,10.55,23.57,23.57,23.57,23.57-10.55,23.57-23.57Z"/>
  <polygon class="st0" points="281.12 139.45 251.86 139.36 251.87 72.46 241.2 71.7 241.14 48.28 251.83 48.13 251.87 .04 281.12 0 281.17 48.17 300.07 48.22 300.14 71.85 281.17 72.08 281.12 139.45"/>
  <path class="st0" d="M637.41,71.98l-12.12-.22c-12.86-.24-23.53,8.39-24.42,22.11-.97,14.93-.3,29.79-.51,45.56h-29.49V48.23s29.47-.04,29.47-.04l.2,21.31c8.69-18.07,15.82-23.1,36.79-21.18l.09,23.66h-.01Z"/>
</svg>