<?xml version="1.0" encoding="UTF-8"?>
<svg id="Layer_1" xmlns="http://www.w3.org/2000/svg" xmlns:x="ns_extend;" version="1.1" viewBox="0 0 544.1 199.8">
  <!-- Generator: Adobe Illustrator 30.1.0, SVG Export Plug-In . SVG Version: 2.1.1 Build 136)  -->
  <defs>
    <style>
      .st0 {
        stroke-dasharray: 1 1;
      }

      .st0, .st1, .st2, .st3, .st4, .st5, .st6 {
        fill: none;
        stroke-miterlimit: 10;
        stroke-width: .25px;
      }

      .st0, .st1, .st2, .st3, .st4, .st6 {
        stroke: #b2b2b2;
      }

      .st7 {
        fill: #424241;
      }

      .st1 {
        stroke-dasharray: .99 .99;
      }

      .st8 {
        fill: #9ca3af;
      }

      .st2 {
        stroke-dasharray: .99 .99;
      }

      .st9 {
        fill: #00abcd;
      }

      .st3 {
        stroke-dasharray: 1 1;
      }

      .st5 {
        stroke: #e71d73;
      }

      .st10 {
        fill: #4d4949;
      }

      .st11 {
        fill: #9d9d9c;
      }

      .st12 {
        display: none;
      }

      .st6 {
        stroke-dasharray: 1 1;
      }
    </style>
  </defs>
  <g id="Grid_x2F_Specs" class="st12">
    <g>
      <line class="st4" x1="222.5" y1="249.2" x2="223" y2="249.2"/>
      <line class="st6" x1="224" y1="249.2" x2="524.5" y2="249.2"/>
      <line class="st4" x1="525" y1="249.2" x2="525.5" y2="249.2"/>
    </g>
    <line class="st3" x1="222.5" y1="318.4" x2="525.5" y2="318.4"/>
    <line class="st3" x1="222.5" y1="283.9" x2="525.5" y2="283.9"/>
    <g>
      <line class="st4" x1="273.9" y1="223.9" x2="273.9" y2="224.4"/>
      <line class="st1" x1="273.9" y1="225.4" x2="273.9" y2="342.1"/>
      <line class="st4" x1="273.9" y1="342.6" x2="273.9" y2="343.1"/>
    </g>
    <g>
      <line class="st4" x1="248.9" y1="223.9" x2="248.9" y2="224.4"/>
      <line class="st1" x1="248.9" y1="225.4" x2="248.9" y2="342.1"/>
      <line class="st4" x1="248.9" y1="342.6" x2="248.9" y2="343.1"/>
    </g>
    <line class="st3" x1="499.2" y1="223.9" x2="499.2" y2="343.1"/>
    <g>
      <line class="st4" x1="286.4" y1="223.9" x2="286.4" y2="224.4"/>
      <line class="st1" x1="286.4" y1="225.4" x2="286.4" y2="342.1"/>
      <line class="st4" x1="286.4" y1="342.6" x2="286.4" y2="343.1"/>
    </g>
    <line class="st3" x1="461.8" y1="223.9" x2="461.8" y2="343.1"/>
    <line class="st3" x1="474.2" y1="223.9" x2="474.2" y2="343.1"/>
    <g>
      <polyline class="st4" points="524.2 342.6 524.2 343.1 523.7 343.1"/>
      <line class="st0" x1="522.7" y1="343.1" x2="224.7" y2="343.1"/>
      <polyline class="st4" points="224.2 343.1 223.7 343.1 223.7 342.6"/>
      <line class="st2" x1="223.7" y1="341.6" x2="223.7" y2="225"/>
      <polyline class="st4" points="223.7 224.5 223.7 224 224.2 224"/>
      <line class="st0" x1="225.2" y1="224" x2="523.2" y2="224"/>
      <polyline class="st4" points="523.7 224 524.2 224 524.2 224.5"/>
      <line class="st2" x1="524.2" y1="225.5" x2="524.2" y2="342.1"/>
    </g>
    <line class="st5" x1="248.7" y1="357.9" x2="273.9" y2="357.9"/>
    <line class="st5" x1="248.9" y1="288.8" x2="248.9" y2="357.9"/>
    <line class="st5" x1="273.9" y1="312.1" x2="273.9" y2="357.9"/>
    <path d="M259.6,363.7l1.3-1.8-1.2-1.7h.5l.6.9c.1.2.2.3.3.4.1-.1.2-.3.3-.4l.7-.9h.5l-1.2,1.6,1.3,1.8h-.6l-.9-1.2c0-.1-.1-.1-.2-.2-.1.1-.1.2-.2.3l-.9,1.2h-.3Z"/>
    <g>
      <path d="M350.8,542h-.4v-2.7c-.1.1-.2.2-.4.3-.2.1-.3.2-.4.2v-.4c.2-.1.4-.2.6-.4s.3-.3.4-.5h.3v3.5h-.1Z"/>
      <path d="M354.1,539.4h-.4c0-.2-.1-.3-.2-.4-.1-.1-.3-.2-.4-.2s-.3,0-.4.1-.2.2-.3.4c-.1.2-.1.5-.1.8.1-.2.2-.3.4-.3.1-.1.3-.1.5-.1.3,0,.5.1.7.3s.3.5.3.8c0,.2,0,.4-.1.6s-.2.3-.4.4-.4.1-.6.1c-.4,0-.6-.1-.9-.4-.2-.3-.3-.7-.3-1.3,0-.7.1-1.2.4-1.5.2-.3.5-.4.9-.4.3,0,.5.1.7.2.1.4.2.6.2.9ZM352.3,540.9c0,.1,0,.3.1.4s.1.2.3.3.2.1.4.1.3-.1.5-.2c.1-.1.2-.3.2-.6,0-.2-.1-.4-.2-.6-.1-.1-.3-.2-.5-.2s-.4.1-.5.2c-.2.2-.3.3-.3.6Z"/>
      <path d="M354.7,542v-2.5h.4v.4c.1-.1.2-.2.3-.3.1-.1.3-.1.4-.1.2,0,.3,0,.5.1.1.1.2.2.3.3.2-.3.5-.4.8-.4.2,0,.4.1.6.2.1.1.2.4.2.6v1.7h-.4v-2c0-.1-.1-.1-.2-.2s-.2-.1-.3-.1c-.2,0-.3.1-.4.2-.1.1-.2.3-.2.6v1.5h-.4v-1.6c0-.2,0-.3-.1-.4-.1-.1-.2-.1-.3-.1s-.2,0-.3.1-.2.2-.2.3-.1.3-.1.5v1.3l-.6-.1h0Z"/>
      <path d="M358.7,542v-2.5h.4v.4c.1-.1.2-.2.3-.3.1-.1.3-.1.4-.1.2,0,.3,0,.5.1.1.1.2.2.3.3.2-.3.5-.4.8-.4.2,0,.4.1.6.2.1.1.2.4.2.6v1.7h-.4v-2c0-.1-.1-.1-.2-.2s-.2-.1-.3-.1c-.2,0-.3.1-.4.2-.1.1-.2.3-.2.6v1.5h-.4v-1.6c0-.2,0-.3-.1-.4-.1-.1-.2-.1-.3-.1s-.2,0-.3.1-.2.2-.2.3-.1.3-.1.5v1.3l-.6-.1h0Z"/>
      <path d="M364,540.7c0-.5.1-.8.4-1,.2-.2.5-.3.8-.3s.6.1.8.3c.2.2.3.5.3.9,0,.3,0,.6-.1.8s-.2.3-.4.4c-.2.1-.4.2-.6.2-.4,0-.6-.1-.9-.3-.2-.2-.3-.5-.3-1ZM364.4,540.7c0,.3.1.6.2.7.1.2.3.2.5.2s.4-.1.5-.2c.1-.2.2-.4.2-.7s-.1-.5-.2-.7-.3-.2-.5-.2-.4.1-.5.2c-.1.2-.2.4-.2.7Z"/>
      <path d="M366.8,542v-2.5h.4v.4c.1-.2.2-.3.3-.4.1-.1.2-.1.3-.1s.3,0,.4.1l-.1.4c-.1-.1-.2-.1-.3-.1s-.2,0-.3.1q-.1.1-.2.2c0,.2-.1.3-.1.5v1.3l-.4.1h0Z"/>
      <path d="M371.3,542h-.4v-2.7c-.1.1-.2.2-.4.3-.2.1-.3.2-.4.2v-.4c.2-.1.4-.2.6-.4s.3-.3.4-.5h.3v3.5h-.1Z"/>
      <path d="M372.4,540.3c0-.4,0-.7.1-1,.1-.2.2-.4.4-.6s.4-.2.6-.2.4,0,.5.1.3.2.3.3c.1.1.2.3.2.5.1.2.1.5.1.8,0,.4,0,.7-.1,1s-.2.4-.4.6c-.2.1-.4.2-.6.2-.3,0-.6-.1-.8-.4-.2-.2-.3-.7-.3-1.3ZM372.8,540.3c0,.6.1,1,.2,1.1.1.2.3.3.5.3s.4-.1.5-.3.2-.6.2-1.1c0-.6-.1-1-.2-1.1-.1-.2-.3-.3-.5-.3s-.4.1-.5.2c-.1.2-.2.6-.2,1.2Z"/>
      <path d="M375.1,540.3c0-.4,0-.7.1-1,.1-.2.2-.4.4-.6s.4-.2.6-.2.4,0,.5.1.3.2.3.3c.1.1.2.3.2.5.1.2.1.5.1.8,0,.4,0,.7-.1,1s-.2.4-.4.6c-.2.1-.4.2-.6.2-.3,0-.6-.1-.8-.4-.2-.2-.3-.7-.3-1.3ZM375.5,540.3c0,.6.1,1,.2,1.1.1.2.3.3.5.3s.4-.1.5-.3.2-.6.2-1.1c0-.6-.1-1-.2-1.1-.1-.2-.3-.3-.5-.3s-.4.1-.5.2c-.1.2-.2.6-.2,1.2Z"/>
      <path d="M379.3,543v-3.5h.4v.3c.1-.1.2-.2.3-.3.1-.1.3-.1.4-.1.2,0,.4.1.6.2.2.1.3.3.4.5s.1.4.1.7,0,.5-.1.7-.2.4-.4.5c-.2.1-.4.2-.6.2-.1,0-.3,0-.4-.1s-.2-.1-.3-.2v1.2h-.4v-.1ZM379.7,540.8c0,.3.1.6.2.7.1.2.3.2.5.2s.4-.1.5-.2c.1-.2.2-.4.2-.7s-.1-.6-.2-.7c-.1-.2-.3-.2-.5-.2s-.3.1-.5.3c-.2,0-.2.2-.2.6Z"/>
      <path d="M382,539v-.5h.4v.5h-.4ZM382,542v-2.5h.4v2.5h-.4Z"/>
      <path d="M382.8,542l.9-1.3-.9-1.2h.5l.4.6c.1.1.1.2.2.3.1-.1.1-.2.2-.3l.4-.6h.5l-.9,1.2.9,1.3h-.5l-.5-.8v-.2l-.7,1h-.5Z"/>
      <path d="M387.2,541.2l.4.1c-.1.3-.2.5-.4.6-.2.1-.4.2-.7.2-.4,0-.7-.1-.9-.3-.2-.2-.3-.5-.3-1,0-.4.1-.8.3-1s.5-.4.8-.4.6.1.8.3.3.6.3,1v.1h-1.9c0,.3.1.5.2.6s.3.2.5.2.3,0,.4-.1c.4,0,.5-.1.5-.3ZM385.8,540.5h1.4c0-.2-.1-.4-.2-.5-.1-.2-.3-.2-.5-.2s-.4.1-.5.2c-.1.1-.2.3-.2.5Z"/>
      <path d="M388.2,542v-3.5h.4v3.5h-.4Z"/>
      <path d="M389.1,541.2l.4-.1c0,.2.1.3.2.4.1.1.3.1.5.1s.3,0,.4-.1.1-.2.1-.3,0-.2-.1-.2-.2-.1-.4-.1c-.3-.1-.5-.1-.7-.2s-.2-.1-.3-.2c-.1-.1-.1-.2-.1-.3s0-.2.1-.3.1-.2.2-.2.2-.1.3-.1.2-.1.4-.1.4,0,.5.1.3.1.3.2c.1.1.1.2.1.4l-.4.1c0-.1-.1-.2-.2-.3s-.2-.1-.4-.1-.3,0-.4.1-.1.1-.1.2,0,.1.1.1c0,0,.1.1.2.1,0,0,.2.1.4.1.3.1.5.1.6.2.1.1.2.1.3.2.1.1.1.2.1.4,0,.1,0,.3-.1.4-.1.1-.2.2-.4.3-.2.1-.3.1-.5.1-.3,0-.6-.1-.7-.2-.2-.2-.3-.4-.4-.7Z"/>
    </g>
    <g>
      <path class="st11" d="M355.8,535v-4.3h.8l.6,3.3.6-3.3h.8v4.3h-.6v-3.4l-.6,3.4h-.5l-.6-3.4v3.4h-.5Z"/>
      <path class="st11" d="M359.5,535v-4.3h.6v4.3h-.6Z"/>
      <path class="st11" d="M360.9,535v-4.3h.5l1.1,2.6v-2.6h.6v4.3h-.4l-1.1-2.8v2.8h-.7Z"/>
      <path class="st11" d="M363.7,535v-4.3h.6v4.3h-.6Z"/>
      <path class="st11" d="M365.1,535v-4.3h.8l.6,3.3.6-3.3h.8v4.3h-.6v-3.4l-.6,3.4h-.5l-.6-3.4v3.4h-.5Z"/>
      <path class="st11" d="M370.4,534.9c-.1,0-.3.1-.5.1s-.3,0-.5-.1c-.1,0-.3-.1-.3-.2-.1-.1-.2-.2-.2-.3-.1-.1-.1-.3-.1-.4v-3.2h.6v3.3c0,.1.1.2.1.2,0,.1.1.1.2.2.1,0,.2.1.3.1s.2,0,.3-.1c.1,0,.1-.1.2-.2,0-.1.1-.1.1-.2v-3.3h.6v3.2c0,.2-.1.3-.1.4-.1.1-.1.2-.2.3-.2.1-.3.2-.5.2Z"/>
      <path class="st11" d="M371.8,535v-4.3h.8l.6,3.3.6-3.3h.8v4.3h-.6v-3.4l-.6,3.4h-.4l-.6-3.4v3.4h-.6Z"/>
      <path class="st11" d="M377.7,535c-.4,0-.7-.1-.9-.3-.2-.2-.3-.5-.3-.9l.6-.2c0,.6.2.9.6.9.3,0,.5-.2.5-.5v-.3c0-.1-.1-.1-.1-.2q-.1-.1-.1-.2s-.1-.1-.2-.1l-.8-.6c-.1-.1-.2-.2-.3-.4s-.1-.4-.1-.6c0-.3.1-.6.3-.7.2-.2.5-.3.8-.3s.6.1.8.3c.2.2.3.4.4.7v.1l-.6.2v-.1c0-.2-.1-.3-.2-.5-.1-.1-.2-.2-.4-.2-.1,0-.3,0-.3.1-.1.1-.1.2-.1.3,0,.2.1.4.3.6l.8.6c.4.3.6.7.6,1.2,0,.3-.1.6-.3.7s-.7.4-1,.4Z"/>
      <path class="st11" d="M379.3,535v-4.3h.6v4.3h-.6Z"/>
      <path class="st11" d="M380.5,535v-.5l1.4-3.3h-1.2v-.5h1.8v.5l-1.4,3.3h1.4v.5h-2Z"/>
      <path class="st11" d="M383.1,535v-4.3h1.7v.5h-1.1v1.4h.8v.5h-.8v1.5h1.1v.5h-1.7v-.1Z"/>
    </g>
    <line class="st5" x1="223.7" y1="236.1" x2="248.9" y2="236.1"/>
    <line class="st5" x1="223.7" y1="231.8" x2="223.7" y2="240.4"/>
    <line class="st5" x1="248.9" y1="231.8" x2="248.9" y2="240.4"/>
    <line class="st5" x1="511.9" y1="249.3" x2="511.9" y2="224"/>
    <line class="st5" x1="507.5" y1="249.2" x2="516.2" y2="249.2"/>
    <line class="st5" x1="507.5" y1="224" x2="516.2" y2="224"/>
    <line class="st5" x1="273.9" y1="236.1" x2="286.4" y2="236.1"/>
    <line class="st5" x1="273.9" y1="231.8" x2="273.9" y2="240.4"/>
    <line class="st5" x1="286.4" y1="231.8" x2="286.4" y2="240.4"/>
    <g>
      <path d="M276.6,232.3v-1.3c-.2.1-.3.2-.5.3v-.3c.1,0,.2-.1.3-.2s.2-.2.3-.3h.3v1.8h-.4ZM276.3,234.2l2.6-3.7h.4l-2.6,3.7h-.4ZM278.3,234.1c0-.1,0-.2.1-.3s.3-.3.5-.5.4-.3.4-.3q.1-.1.1-.2t-.1-.2c-.1,0-.1-.1-.2-.1s-.2,0-.2.1c-.1,0-.1.1-.1.2h-.4c0-.2.1-.3.2-.4.1-.1.3-.1.5-.1s.4,0,.5.1.2.2.2.3,0,.3-.1.4c-.1.1-.2.2-.5.4-.1.1-.2.2-.3.2h.9v.3h-1.5v.1Z"/>
      <path d="M281.3,234.1l1.3-1.8-1.2-1.7h.5l.6.9c.1.2.2.3.3.4.1-.1.2-.3.3-.4l.7-.9h.5l-1.2,1.6,1.3,1.8h-.6l-.9-1.2c0-.1-.1-.1-.2-.2-.1.1-.1.2-.2.3l-.9,1.2h-.3Z"/>
    </g>
    <path d="M234.7,234.1l1.3-1.8-1.2-1.7h.5l.6.9c.1.2.2.3.3.4.1-.1.2-.3.3-.4l.7-.9h.5l-1.2,1.6,1.3,1.8h-.6l-.9-1.2c0-.1-.1-.1-.2-.2-.1.1-.1.2-.2.3l-.9,1.2h-.3Z"/>
    <line class="st5" x1="320.2" y1="521.4" x2="420.2" y2="521.4"/>
    <line class="st5" x1="320.2" y1="517" x2="320.2" y2="525.7"/>
    <line class="st5" x1="420.2" y1="517" x2="420.2" y2="525.7"/>
    <path d="M505.9,238.8l1.3-1.8-1.2-1.7h.5l.6.9c.1.2.2.3.3.4.1-.1.2-.3.3-.4l.7-.9h.5l-1.2,1.6,1.3,1.8h-.6l-.9-1.2c0-.1-.1-.1-.2-.2-.1.1-.1.2-.2.3l-.9,1.2h-.3Z"/>
    <g>
      <g>
        <path class="st7" d="M47.6,498.8l.8-1c.5.4,1.1.7,1.6.7.6,0,.9-.2.9-.6s-.4-.5-.9-.8l-.8-.4c-.7-.3-1.3-.8-1.3-1.8,0-1.1,1-1.9,2.3-1.9.7,0,1.5.3,2.1.9l-.7.9c-.4-.3-.8-.5-1.3-.5s-.8.2-.8.6.4.5,1,.8l.8.3c.8.3,1.3.8,1.3,1.8,0,1.1-.9,2-2.5,2-.9-.1-1.8-.4-2.5-1Z"/>
        <path class="st7" d="M53.5,492.6h1.5v1.7l-.1.9c.4-.3.9-.7,1.5-.7,1.1,0,1.5.8,1.5,2v3.1h-1.5v-2.9c0-.7-.2-.9-.6-.9s-.6.2-.9.5v3.3h-1.5l.1-7h0Z"/>
        <path class="st7" d="M58.9,498.2c0-1,.8-1.6,2.8-1.8,0-.4-.2-.7-.8-.7-.4,0-.8.2-1.3.5l-.5-1c.6-.4,1.3-.6,2.1-.6,1.3,0,2,.7,2,2.2v2.8h-1.2l-.1-.5h0c-.4.4-.9.6-1.4.6-1,0-1.6-.7-1.6-1.5ZM61.7,498.1v-.9c-1,.1-1.4.4-1.4.8,0,.3.2.5.6.5.4.1.6-.1.8-.4Z"/>
        <path class="st7" d="M64.4,494.6h1.2l.1.9h0c.4-.7.9-1,1.4-1,.3,0,.4,0,.6.1l-.2,1.3c-.2,0-.3-.1-.5-.1-.4,0-.8.2-1.1.9v2.9h-1.5v-5Z"/>
        <path class="st7" d="M68.4,494.6h1.2l.1.5h0c.4-.3.9-.6,1.4-.6,1.2,0,1.9,1,1.9,2.5,0,1.7-1,2.7-2.1,2.7-.4,0-.8-.2-1.2-.5v2.2h-1.5v-6.8h.2ZM71.6,497c0-.9-.3-1.3-.9-1.3-.3,0-.6.1-.8.5v2c.3.2.5.3.8.3.5,0,.9-.4.9-1.5Z"/>
        <path class="st7" d="M76.3,493.1h2.2c1.3,0,2.4.4,2.4,1.6,0,.6-.3,1.2-.8,1.4h0c.7.2,1.2.7,1.2,1.5,0,1.3-1.1,1.9-2.5,1.9h-2.4l-.1-6.4h0ZM78.4,495.7c.7,0,1-.3,1-.8s-.3-.7-1-.7h-.7v1.5h.7ZM78.6,498.4c.8,0,1.2-.3,1.2-.9s-.4-.8-1.2-.8h-.8v1.7h.8Z"/>
        <path class="st7" d="M82.2,498v-5.5h1.5v5.5c0,.3.1.4.3.4h.2l.2,1.1c-.2.1-.4.1-.7.1-1.2.1-1.5-.6-1.5-1.6Z"/>
        <path class="st7" d="M85,497.7v-3.1h1.5v2.9c0,.7.2.9.6.9s.6-.2.9-.5v-3.3h1.5v5h-1.2l-.1-.7h0c-.4.5-.9.8-1.6.8-1.1,0-1.6-.8-1.6-2Z"/>
        <path class="st7" d="M90.5,497.1c0-1.6,1.1-2.6,2.3-2.6,1.4,0,2.1,1,2.1,2.4,0,.3,0,.5-.1.6h-3c.1.7.6,1,1.3,1,.4,0,.7-.1,1.1-.3l.5.9c-.5.3-1.2.6-1.8.6-1.4,0-2.4-1-2.4-2.6ZM93.7,496.6c0-.5-.2-.9-.8-.9-.5,0-.9.3-1,.9h1.8Z"/>
      </g>
      <g>
        <path class="st7" d="M48.2,505h.8v2.7h3v-2.7h.8v6.6h-.8v-3.1h-3v3.1h-.8v-6.6Z"/>
        <path class="st7" d="M54.2,509.2c0-1.6,1.1-2.6,2.2-2.6,1.2,0,1.9.9,1.9,2.3v.5h-3.3c.1,1,.7,1.7,1.6,1.7.5,0,.8-.1,1.2-.4l.3.5c-.4.3-.9.5-1.6.5-1.2,0-2.3-1-2.3-2.5ZM57.6,508.8c0-1-.4-1.5-1.2-1.5-.7,0-1.3.5-1.4,1.5h2.6Z"/>
        <path class="st7" d="M60.4,509l-1.5-2.3h.9l.6,1.1c.1.3.3.5.5.8h0c.1-.3.3-.5.4-.8l.6-1.1h.9l-1.5,2.4,1.6,2.4h-.9l-.7-1.1c-.2-.3-.4-.6-.5-.9h0c-.2.3-.3.6-.5.9l-.7,1.1h-.9l1.7-2.5Z"/>
        <path class="st7" d="M63.8,507.5c0-.4.3-.6.6-.6s.6.3.6.6c0,.4-.3.6-.6.6s-.6-.3-.6-.6ZM63.8,511.1c0-.4.3-.6.6-.6s.6.3.6.6c0,.4-.3.6-.6.6s-.6-.3-.6-.6Z"/>
        <path class="st7" d="M68.8,509.5h-.8v-.5h.9l.2-1.5h-.8v-.6h.9l.2-1.8h.5l-.2,1.8h1.3l.2-1.8h.5l-.2,1.8h.8v.6h-.9l-.2,1.5h.8v.6h-.9l-.2,2h-.5l.2-2h-1.3l-.2,2h-.5l.2-2.1ZM70.7,509l.2-1.5h-1.3l-.2,1.5h1.3Z"/>
        <path class="st7" d="M72.9,510.8l.4-.5c.4.4.9.8,1.6.8.8,0,1.3-.5,1.3-1.2,0-.8-.5-1.3-2-1.3v-.6c1.4,0,1.8-.5,1.8-1.2,0-.6-.4-1-1.1-1-.5,0-1,.3-1.4.7l-.4-.5c.5-.5,1.1-.8,1.8-.8,1.1,0,1.9.6,1.9,1.6,0,.8-.5,1.3-1.2,1.5h0c.8.2,1.4.7,1.4,1.6,0,1.1-.9,1.8-2.1,1.8-1,0-1.6-.4-2-.9Z"/>
        <path class="st7" d="M78.5,510.5c.3.3.6.5,1,.5.9,0,1.7-.7,1.7-2.7-.4.5-1,.8-1.5.8-1.1,0-1.8-.7-1.8-2,0-1.2.9-2,1.9-2,1.3,0,2.2,1,2.2,3.1,0,2.6-1.2,3.5-2.4,3.5-.7,0-1.2-.3-1.5-.7l.4-.5ZM81.2,507.6c-.1-1.2-.6-1.9-1.4-1.9-.6,0-1.1.6-1.1,1.4s.4,1.3,1.2,1.3c.4.1.9-.2,1.3-.8Z"/>
        <path class="st7" d="M83.1,508.3c0-2.1,1.2-3.4,2.9-3.4.8,0,1.4.4,1.8.8l-.4.5c-.3-.4-.8-.6-1.3-.6-1.2,0-2.1,1-2.1,2.6s.8,2.7,2,2.7c.6,0,1.1-.3,1.5-.7l.5.5c-.5.6-1.2.9-2,.9-1.7.1-2.9-1.2-2.9-3.3Z"/>
        <path class="st7" d="M88.6,511.1c1.9-1.9,3-3.1,3-4.1,0-.7-.4-1.2-1.2-1.2-.5,0-1,.3-1.4.8l-.5-.5c.5-.6,1.1-1,1.9-1,1.2,0,1.9.7,1.9,1.9s-1.1,2.4-2.6,4c.3,0,.7-.1,1.1-.1h1.8v.7h-4.1l.1-.5h0Z"/>
        <path class="st7" d="M94.1,505h1.6c2,0,3.1,1.2,3.1,3.2,0,2.1-1.1,3.3-3.1,3.3h-1.7l.1-6.5h0ZM95.7,510.9c1.5,0,2.3-1,2.3-2.6s-.8-2.6-2.3-2.6h-.7v5.2h.7Z"/>
        <path class="st7" d="M103,505.9h-3.2v-.7h4.1v.5c-1.5,1.9-1.8,3.4-1.9,5.9h-.8c0-2.4.5-3.9,1.8-5.7Z"/>
      </g>
      <g>
        <path class="st7" d="M51.8,523.6l-1.6-2.8h-1.2v2.8h-.8v-6.6h2c1.3,0,2.3.5,2.3,1.8,0,1-.6,1.6-1.5,1.9l1.7,2.9h-.9ZM49,520.1h1.1c1,0,1.6-.4,1.6-1.3s-.6-1.2-1.6-1.2h-1.1v2.5Z"/>
        <path class="st7" d="M53.5,520.3c0-2.1,1.3-3.4,3-3.4.9,0,1.5.4,1.9.8l-.5.5c-.3-.3-.8-.6-1.4-.6-1.3,0-2.2,1-2.2,2.6s.8,2.7,2.2,2.7c.5,0,.9-.2,1.2-.4v-1.7h-1.4v-.7h2.1v2.8c-.4.4-1.1.8-2,.8-1.7,0-2.9-1.3-2.9-3.4Z"/>
        <path class="st7" d="M60,517h2c1.3,0,2.2.5,2.2,1.6,0,.6-.3,1.2-1,1.4h0c.8.2,1.3.7,1.3,1.6,0,1.3-1,1.9-2.5,1.9h-2v-6.5ZM61.8,519.8c1.1,0,1.6-.4,1.6-1.1,0-.8-.5-1-1.5-1h-1v2.1h.9ZM62,522.9c1.1,0,1.8-.4,1.8-1.3,0-.8-.6-1.2-1.8-1.2h-1.1v2.5h1.1Z"/>
        <path class="st7" d="M65.6,519.5c0-.4.3-.6.6-.6s.6.3.6.6c0,.4-.3.6-.6.6s-.6-.3-.6-.6ZM65.6,523.1c0-.4.3-.6.6-.6s.6.3.6.6c0,.4-.3.6-.6.6-.3,0-.6-.3-.6-.6Z"/>
        <path class="st7" d="M69.7,522.8l.4-.5c.4.4.9.7,1.6.7.8,0,1.4-.6,1.4-1.5s-.5-1.4-1.4-1.4c-.4,0-.7.1-1.1.4l-.4-.3.2-3.1h3.2v.7h-2.5l-.2,1.9c.3-.2.6-.3,1-.3,1.1,0,2,.6,2,2s-1,2.2-2.1,2.2c-1,.1-1.6-.3-2.1-.8Z"/>
        <path class="st7" d="M78.1,517.9h-3.2v-.7h4.1v.5c-1.5,1.9-1.8,3.4-1.9,5.9h-.8c0-2.4.5-3.9,1.8-5.7Z"/>
        <path class="st7" d="M79.9,524.8c.6-.2.9-.7.9-1.2h-.1c-.3,0-.6-.2-.6-.6s.3-.6.6-.6c.4,0,.7.4.7,1,0,.9-.5,1.5-1.3,1.9l-.2-.5Z"/>
        <path class="st7" d="M84.7,522.9h1.5v-4.7h-1.2v-.5c.6-.1,1-.3,1.3-.5h.6v5.7h1.3v.7h-3.6l.1-.7h0Z"/>
        <path class="st7" d="M89.9,522.5c.3.3.6.5,1,.5.9,0,1.7-.7,1.7-2.7-.4.5-1,.8-1.5.8-1.1,0-1.8-.7-1.8-2,0-1.2.9-2,1.9-2,1.3,0,2.2,1,2.2,3.1,0,2.6-1.2,3.5-2.4,3.5-.7,0-1.2-.3-1.5-.7l.4-.5ZM92.6,519.6c-.1-1.2-.6-1.9-1.4-1.9-.6,0-1.1.6-1.1,1.4s.4,1.3,1.2,1.3c.3.1.8-.2,1.3-.8Z"/>
        <path class="st7" d="M98.5,521.8h-.9v1.8h-.8v-1.8h-2.8v-.5l2.7-4.1h.9v4h.9v.6ZM96.9,521.2v-3h0c-.2.3-.3.6-.5.9l-1.5,2.2h2v-.1Z"/>
        <path class="st7" d="M99.3,524.8c.6-.2.9-.7.9-1.2h-.1c-.3,0-.6-.2-.6-.6s.3-.6.6-.6c.4,0,.7.4.7,1,0,.9-.5,1.5-1.3,1.9l-.2-.5Z"/>
        <path class="st7" d="M103.7,523.1c1.9-1.9,3-3.1,3-4.1,0-.7-.4-1.2-1.2-1.2-.5,0-1,.3-1.4.8l-.5-.5c.5-.6,1.1-1,1.9-1,1.2,0,1.9.7,1.9,1.9s-1.1,2.4-2.6,4c.3,0,.7-.1,1.1-.1h1.8v.7h-4.1l.1-.5h0Z"/>
        <path class="st7" d="M109.1,522.9h1.5v-4.7h-1.2v-.5c.6-.1,1-.3,1.3-.5h.6v5.7h1.3v.7h-3.6l.1-.7h0Z"/>
        <path class="st7" d="M113.5,522.8l.4-.5c.4.4.9.7,1.6.7.8,0,1.4-.6,1.4-1.5s-.5-1.4-1.4-1.4c-.4,0-.7.1-1.1.4l-.4-.3.2-3.1h3.2v.7h-2.5l-.2,1.9c.3-.2.6-.3,1-.3,1.1,0,2,.6,2,2s-1,2.2-2.1,2.2c-1,.1-1.7-.3-2.1-.8Z"/>
      </g>
      <g>
        <path class="st7" d="M47.8,532.3c0-2.1,1.2-3.4,2.9-3.4.8,0,1.4.4,1.8.8l-.4.5c-.3-.4-.8-.6-1.3-.6-1.2,0-2.1,1-2.1,2.6s.8,2.7,2,2.7c.6,0,1.1-.3,1.5-.7l.5.5c-.5.6-1.2.9-2,.9-1.7.1-2.9-1.2-2.9-3.3Z"/>
        <path class="st7" d="M53.9,529h1l1.3,3.5c.2.5.3.9.5,1.4h0c.2-.4.3-.9.4-1.4l1.2-3.5h1v6.6h-.8v-3.6c0-.6.1-1.4.1-1.9h0l-.5,1.5-1.2,3.4h-.5l-1.2-3.4-.5-1.5h0c0,.6.1,1.4.1,1.9v3.6h-.7v-6.6h-.2Z"/>
        <path class="st7" d="M62.2,533l-2-4h.9l.8,1.8c.2.5.4.9.6,1.4h0c.2-.5.5-.9.7-1.4l.8-1.8h1l-2,4v2.5h-.8v-2.5Z"/>
        <path class="st7" d="M65.9,529h.8v3.3h0l2.7-3.3h.9l-2,2.5,2.4,4.1h-.9l-2-3.4-1.1,1.3v2.1h-.8v-6.6Z"/>
        <path class="st7" d="M71.4,531.5c0-.4.3-.6.6-.6s.6.3.6.6c0,.4-.3.6-.6.6s-.6-.3-.6-.6ZM71.4,535.1c0-.4.3-.6.6-.6s.6.3.6.6c0,.4-.3.6-.6.6-.3,0-.6-.3-.6-.6Z"/>
        <path class="st7" d="M75.7,533.9c0-.8.6-1.4,1.2-1.7h0c-.5-.3-.9-.8-.9-1.5,0-1,.8-1.6,1.8-1.6,1.1,0,1.8.7,1.8,1.7,0,.7-.5,1.2-.9,1.5h0c.6.3,1.1.8,1.1,1.6,0,.9-.8,1.7-2.1,1.7-1.1.1-2-.6-2-1.7ZM79,534c0-.8-.8-1.1-1.7-1.5-.5.3-.9.8-.9,1.4,0,.7.6,1.2,1.4,1.2.7,0,1.2-.5,1.2-1.1ZM78.9,530.8c0-.6-.4-1.1-1.1-1.1-.6,0-1,.4-1,1,0,.8.7,1.1,1.5,1.4.3-.4.6-.8.6-1.3Z"/>
        <path class="st7" d="M84.9,533.8h-.9v1.8h-.8v-1.8h-2.9v-.5l2.7-4.1h.9v4h.9v.6h.1ZM83.3,533.2v-1.8c0-.3,0-.9.1-1.2h0c-.2.3-.3.6-.5.9l-1.5,2.2h1.9v-.1Z"/>
        <path class="st7" d="M85.7,536.8c.6-.2.9-.7.9-1.2h-.1c-.3,0-.6-.2-.6-.6s.3-.6.6-.6c.4,0,.7.4.7,1,0,.9-.5,1.5-1.3,1.9l-.2-.5Z"/>
        <path class="st7" d="M90.1,532.4c0-2.1.8-3.3,2-3.3,1.3,0,2,1.1,2,3.3s-.8,3.3-2,3.3-2-1.2-2-3.3ZM93.4,532.4c0-1.9-.5-2.6-1.2-2.6s-1.2.8-1.2,2.6.5,2.7,1.2,2.7c.7-.1,1.2-.9,1.2-2.7Z"/>
        <path class="st7" d="M95.1,536.8c.6-.2.9-.7.9-1.2h-.1c-.3,0-.6-.2-.6-.6s.3-.6.6-.6c.4,0,.7.4.7,1,0,.9-.5,1.5-1.3,1.9l-.2-.5Z"/>
        <path class="st7" d="M100,534.9h1.5v-4.7h-1.2v-.5c.6-.1,1-.3,1.3-.5h.6v5.7h1.3v.7h-3.5v-.7Z"/>
        <path class="st7" d="M104.5,533.9c0-.8.6-1.4,1.2-1.7h0c-.5-.3-.9-.8-.9-1.5,0-1,.8-1.6,1.8-1.6,1.1,0,1.8.7,1.8,1.7,0,.7-.5,1.2-.9,1.5h0c.6.3,1.1.8,1.1,1.6,0,.9-.8,1.7-2.1,1.7-1.1.1-2-.6-2-1.7ZM107.9,534c0-.8-.8-1.1-1.7-1.5-.5.3-.9.8-.9,1.4,0,.7.6,1.2,1.4,1.2.7,0,1.2-.5,1.2-1.1ZM107.7,530.8c0-.6-.4-1.1-1.1-1.1-.6,0-1,.4-1,1,0,.8.7,1.1,1.5,1.4.4-.4.6-.8.6-1.3Z"/>
        <path class="st7" d="M109.6,536.8c.6-.2.9-.7.9-1.2h-.1c-.3,0-.6-.2-.6-.6s.3-.6.6-.6c.4,0,.7.4.7,1,0,.9-.5,1.5-1.3,1.9l-.2-.5Z"/>
        <path class="st7" d="M114,532.4c0-2.1.8-3.3,2-3.3,1.3,0,2,1.1,2,3.3s-.8,3.3-2,3.3-2-1.2-2-3.3ZM117.3,532.4c0-1.9-.5-2.6-1.2-2.6s-1.2.8-1.2,2.6.5,2.7,1.2,2.7c.7-.1,1.2-.9,1.2-2.7Z"/>
      </g>
      <g>
        <path class="st7" d="M48.2,541h1.8c1.5,0,2.5.5,2.5,1.9s-1,2-2.4,2h-1.1v2.6h-.8v-6.5ZM50,544.3c1.1,0,1.7-.4,1.7-1.3s-.6-1.3-1.7-1.3h-1v2.6h1Z"/>
        <path class="st7" d="M53.8,541h1l1.3,3.5c.2.5.3.9.5,1.4h0c.2-.4.3-.9.4-1.4l1.2-3.5h1v6.6h-.8v-3.6c0-.6.1-1.4.1-1.9h0l-.5,1.5-1.2,3.4h-.5l-1.2-3.4-.5-1.5h0c0,.6.1,1.4.1,1.9v3.6h-.7v-6.6h-.2Z"/>
        <path class="st7" d="M60.6,546.7l.5-.6c.5.5,1.1.8,1.8.8.9,0,1.4-.4,1.4-1.1s-.5-.9-1.1-1.2l-.9-.4c-.6-.3-1.3-.7-1.3-1.7s.9-1.7,2.1-1.7c.8,0,1.5.3,1.9.8l-.4.5c-.4-.4-.9-.6-1.5-.6-.7,0-1.2.4-1.2,1s.6.9,1.1,1.1l.9.4c.8.3,1.3.8,1.3,1.7,0,1-.8,1.9-2.2,1.9-1,.1-1.8-.3-2.4-.9Z"/>
        <path class="st7" d="M66.2,543.5c0-.4.3-.6.6-.6s.6.3.6.6c0,.4-.3.6-.6.6-.4,0-.6-.3-.6-.6ZM66.2,547.1c0-.4.3-.6.6-.6s.6.3.6.6c0,.4-.3.6-.6.6-.4,0-.6-.3-.6-.6Z"/>
        <path class="st7" d="M70.3,546.8l.4-.5c.4.4.9.8,1.6.8.8,0,1.3-.5,1.3-1.2,0-.8-.5-1.3-2-1.3v-.6c1.4,0,1.8-.5,1.8-1.2,0-.6-.4-1-1.1-1-.5,0-1,.3-1.4.7l-.4-.5c.5-.5,1.1-.8,1.8-.8,1.1,0,1.9.6,1.9,1.6,0,.8-.5,1.3-1.2,1.5h0c.8.2,1.4.7,1.4,1.6,0,1.1-.9,1.8-2.1,1.8-.9,0-1.6-.4-2-.9Z"/>
        <path class="st7" d="M75.8,546.9h1.5v-4.7h-1.2v-.5c.6-.1,1-.3,1.3-.5h.6v5.7h1.3v.7h-3.6l.1-.7h0Z"/>
        <path class="st7" d="M80.4,547.1c1.9-1.9,3-3.1,3-4.1,0-.7-.4-1.2-1.2-1.2-.5,0-1,.3-1.4.8l-.5-.5c.5-.6,1.1-1,1.9-1,1.2,0,1.9.7,1.9,1.9s-1.1,2.4-2.6,4c.3,0,.7-.1,1.1-.1h1.8v.7h-4.1l.1-.5h0Z"/>
        <path class="st7" d="M85.2,546.8l.4-.5c.4.4.9.7,1.6.7.8,0,1.4-.6,1.4-1.5s-.5-1.4-1.4-1.4c-.4,0-.7.1-1.1.4l-.4-.3.2-3.1h3.2v.7h-2.5l-.2,1.9c.3-.2.6-.3,1-.3,1.1,0,2,.6,2,2s-1,2.2-2.1,2.2c-1.1.1-1.7-.3-2.1-.8Z"/>
        <path class="st7" d="M92.4,544.3c0-2.1,1.2-3.4,2.9-3.4.8,0,1.4.4,1.8.8l-.4.5c-.3-.4-.8-.6-1.3-.6-1.2,0-2.1,1-2.1,2.6s.8,2.7,2,2.7c.6,0,1.1-.3,1.5-.7l.5.5c-.5.6-1.2.9-2,.9-1.7.1-2.9-1.2-2.9-3.3Z"/>
      </g>
      <g>
        <path class="st7" d="M161.9,496.4c0-2.2,1.4-3.4,3.2-3.4.9,0,1.6.4,2,.8l-.8.9c-.3-.3-.7-.5-1.2-.5-1,0-1.7.8-1.7,2.1s.6,2.1,1.8,2.1c.3,0,.5-.1.7-.2v-1.1h-1.1v-1.2h2.4v3c-.4.4-1.2.8-2.1.8-1.8,0-3.2-1.2-3.2-3.3Z"/>
        <path class="st7" d="M168.5,494.6h1.2l.1.9h0c.4-.7.9-1,1.4-1,.3,0,.4,0,.6.1l-.2,1.3c-.2,0-.3-.1-.5-.1-.4,0-.8.2-1.1.9v2.9h-1.5v-5Z"/>
        <path class="st7" d="M172,498.2c0-1,.8-1.6,2.8-1.8,0-.4-.2-.7-.8-.7-.4,0-.8.2-1.3.5l-.5-1c.6-.4,1.3-.6,2.1-.6,1.3,0,2,.7,2,2.2v2.8h-1.3l-.1-.5h0c-.4.4-.9.6-1.4.6-1,0-1.5-.7-1.5-1.5ZM174.7,498.1v-.9c-1,.1-1.4.4-1.4.8,0,.3.2.5.6.5.4.1.6-.1.8-.4Z"/>
        <path class="st7" d="M177.5,494.6h1.2l.1.5h0c.4-.3.9-.6,1.4-.6,1.2,0,1.9,1,1.9,2.5,0,1.7-1,2.7-2.1,2.7-.4,0-.8-.2-1.2-.5v2.2h-1.5v-6.8h.2ZM180.6,497c0-.9-.3-1.3-.9-1.3-.3,0-.6.1-.8.5v2c.3.2.5.3.8.3.5,0,.9-.4.9-1.5Z"/>
        <path class="st7" d="M183.2,492.6h1.5v1.7l-.1.9c.4-.3.9-.7,1.5-.7,1.1,0,1.5.8,1.5,2v3.1h-1.5v-2.9c0-.7-.2-.9-.6-.9s-.6.2-.9.5v3.3h-1.5v-7h.1Z"/>
        <path class="st7" d="M188.8,493.1c0-.5.4-.8.8-.8.5,0,.8.3.8.8,0,.4-.4.8-.8.8-.5,0-.8-.3-.8-.8ZM188.9,494.6h1.5v5h-1.5v-5Z"/>
        <path class="st7" d="M191.9,497.8v-2h-.7v-1.1l.8-.1.2-1.3h1.2v1.3h1.2v1.1h-1.2v2c0,.6.2.8.6.8.2,0,.3,0,.5-.1l.2,1.1c-.3.1-.6.2-1.1.2-1.3,0-1.7-.8-1.7-1.9Z"/>
        <path class="st7" d="M195,497.1c0-1.6,1.1-2.6,2.3-2.6,1.4,0,2.1,1,2.1,2.4,0,.3,0,.5-.1.6h-3c.1.7.6,1,1.3,1,.4,0,.7-.1,1.1-.3l.5.9c-.5.3-1.2.6-1.8.6-1.3,0-2.4-1-2.4-2.6ZM198.2,496.6c0-.5-.2-.9-.8-.9-.5,0-.9.3-1,.9h1.8Z"/>
      </g>
      <g>
        <path class="st7" d="M162.3,505h.8v2.7h3v-2.7h.8v6.6h-.8v-3.1h-3v3.1h-.8v-6.6Z"/>
        <path class="st7" d="M168.4,509.2c0-1.6,1.1-2.6,2.2-2.6,1.2,0,1.9.9,1.9,2.3v.5h-3.3c.1,1,.7,1.7,1.6,1.7.5,0,.8-.1,1.2-.4l.3.5c-.4.3-.9.5-1.6.5-1.2,0-2.3-1-2.3-2.5ZM171.8,508.8c0-1-.4-1.5-1.2-1.5-.7,0-1.3.5-1.4,1.5h2.6Z"/>
        <path class="st7" d="M174.6,509l-1.5-2.3h.9l.6,1.1c.1.3.3.5.5.8h0c.1-.3.3-.5.4-.8l.6-1.1h.9l-1.5,2.4,1.6,2.4h-.9l-.7-1.1c-.2-.3-.4-.6-.5-.9h0c-.2.3-.3.6-.5.9l-.7,1.1h-.8l1.6-2.5Z"/>
        <path class="st7" d="M178,507.5c0-.4.3-.6.6-.6s.6.3.6.6c0,.4-.3.6-.6.6-.4,0-.6-.3-.6-.6ZM178,511.1c0-.4.3-.6.6-.6s.6.3.6.6c0,.4-.3.6-.6.6-.4,0-.6-.3-.6-.6Z"/>
        <path class="st7" d="M183,509.5h-.8v-.5h.9l.2-1.5h-.8v-.6h.9l.2-1.8h.5l-.2,1.8h1.3l.2-1.8h.5l-.2,1.8h.8v.6h-.9l-.2,1.5h.8v.6h-.9l-.2,2h-.5l.2-2h-1.3l-.2,2h-.5l.2-2.1ZM184.9,509l.2-1.5h-1.3l-.2,1.5h1.3Z"/>
        <path class="st7" d="M191.5,509.8h-.9v1.8h-.8v-1.8h-2.8v-.5l2.7-4.1h.9v4h.9v.6h0ZM189.8,509.2v-3h0c-.2.3-.3.6-.5.9l-1.5,2.2h2v-.1Z"/>
        <path class="st7" d="M195.7,506.3c-.3-.3-.6-.5-1-.5-.9,0-1.6.7-1.7,2.7.4-.5,1-.8,1.5-.8,1.1,0,1.8.7,1.8,2,0,1.2-.9,2-1.9,2-1.2,0-2.2-1-2.2-3.1,0-2.6,1.2-3.5,2.4-3.5.7,0,1.2.3,1.5.7l-.4.5ZM195.5,509.6c0-.8-.4-1.3-1.2-1.3-.4,0-.9.2-1.3.8.1,1.2.6,1.9,1.4,1.9.7,0,1.1-.5,1.1-1.4Z"/>
        <path class="st7" d="M201.4,509.8h-.9v1.8h-.8v-1.8h-2.9v-.5l2.7-4.1h.9v4h.9v.6h.1ZM199.8,509.2v-3h0c-.2.3-.3.6-.5.9l-1.5,2.2h2v-.1Z"/>
        <path class="st7" d="M201.9,510.8l.4-.5c.4.4.9.7,1.6.7.8,0,1.4-.6,1.4-1.5s-.5-1.4-1.4-1.4c-.4,0-.7.1-1.1.4l-.4-.3.2-3.1h3.2v.7h-2.5l-.2,1.9c.3-.2.6-.3,1-.3,1.1,0,2,.6,2,2s-1,2.2-2.1,2.2c-1,.1-1.6-.3-2.1-.8Z"/>
        <path class="st7" d="M211.4,509.8h-.9v1.8h-.8v-1.8h-2.9v-.5l2.7-4.1h.9v4h.9v.6h.1ZM209.7,509.2v-3h0c-.2.3-.3.6-.5.9l-1.5,2.2h2v-.1Z"/>
        <path class="st7" d="M215.3,505.9h-3.2v-.7h4.1v.5c-1.5,1.9-1.8,3.4-1.9,5.9h-.8c0-2.4.5-3.9,1.8-5.7Z"/>
      </g>
      <g>
        <path class="st7" d="M165.9,523.6l-1.6-2.8h-1.2v2.8h-.8v-6.6h2c1.3,0,2.3.5,2.3,1.8,0,1-.6,1.6-1.5,1.9l1.7,2.9h-.9ZM163.2,520.1h1.1c1,0,1.6-.4,1.6-1.3s-.6-1.2-1.6-1.2h-1.1v2.5Z"/>
        <path class="st7" d="M167.7,520.3c0-2.1,1.3-3.4,3-3.4.9,0,1.5.4,1.9.8l-.5.5c-.3-.3-.8-.6-1.4-.6-1.3,0-2.2,1-2.2,2.6s.8,2.7,2.2,2.7c.5,0,.9-.2,1.2-.4v-1.7h-1.4v-.7h2.1v2.8c-.4.4-1.1.8-2,.8-1.7,0-2.9-1.3-2.9-3.4Z"/>
        <path class="st7" d="M174.2,517h1.9c1.3,0,2.2.5,2.2,1.6,0,.6-.3,1.2-1,1.4h0c.8.2,1.3.7,1.3,1.6,0,1.3-1,1.9-2.5,1.9h-2.1v-6.5h.2ZM176,519.8c1.1,0,1.6-.4,1.6-1.1,0-.8-.5-1-1.5-1h-1v2.1h.9ZM176.2,522.9c1.1,0,1.8-.4,1.8-1.3,0-.8-.6-1.2-1.8-1.2h-1.2v2.5h1.2Z"/>
        <path class="st7" d="M179.8,519.5c0-.4.3-.6.6-.6s.6.3.6.6c0,.4-.3.6-.6.6s-.6-.3-.6-.6ZM179.8,523.1c0-.4.3-.6.6-.6s.6.3.6.6c0,.4-.3.6-.6.6-.3,0-.6-.3-.6-.6Z"/>
        <path class="st7" d="M187.3,517.9h-3.2v-.7h4.1v.5c-1.5,1.9-1.8,3.4-1.9,5.9h-.8c.1-2.4.5-3.9,1.8-5.7Z"/>
        <path class="st7" d="M189.1,520.4c0-2.1.8-3.3,2-3.3,1.3,0,2,1.1,2,3.3s-.8,3.3-2,3.3-2-1.2-2-3.3ZM192.4,520.4c0-1.9-.5-2.6-1.2-2.6s-1.2.8-1.2,2.6.5,2.7,1.2,2.7c.7-.1,1.2-.9,1.2-2.7Z"/>
        <path class="st7" d="M194.1,524.8c.6-.2.9-.7.9-1.2h-.1c-.3,0-.6-.2-.6-.6s.3-.6.6-.6c.4,0,.7.4.7,1,0,.9-.5,1.5-1.3,1.9l-.2-.5Z"/>
        <path class="st7" d="M202.1,518.3c-.3-.3-.6-.5-1-.5-.9,0-1.6.7-1.7,2.7.4-.5,1-.8,1.5-.8,1.1,0,1.8.7,1.8,2,0,1.2-.9,2-1.9,2-1.2,0-2.2-1-2.2-3.1,0-2.6,1.2-3.5,2.4-3.5.7,0,1.2.3,1.5.7l-.4.5ZM201.9,521.6c0-.8-.4-1.3-1.2-1.3-.4,0-.9.2-1.3.8.1,1.2.6,1.9,1.4,1.9.6,0,1.1-.5,1.1-1.4Z"/>
        <path class="st7" d="M204,522.5c.3.3.6.5,1,.5.9,0,1.7-.7,1.7-2.7-.4.5-1,.8-1.5.8-1.1,0-1.8-.7-1.8-2,0-1.2.9-2,1.9-2,1.3,0,2.2,1,2.2,3.1,0,2.6-1.2,3.5-2.4,3.5-.7,0-1.2-.3-1.5-.7l.4-.5ZM206.8,519.6c-.1-1.2-.6-1.9-1.4-1.9-.6,0-1.1.6-1.1,1.4s.4,1.3,1.2,1.3c.3.1.8-.2,1.3-.8Z"/>
        <path class="st7" d="M208.5,524.8c.6-.2.9-.7.9-1.2h-.1c-.3,0-.6-.2-.6-.6s.3-.6.6-.6c.4,0,.7.4.7,1,0,.9-.5,1.5-1.3,1.9l-.2-.5Z"/>
        <path class="st7" d="M216.2,517.9h-3.2v-.7h4.1v.5c-1.5,1.9-1.8,3.4-1.9,5.9h-.8c0-2.4.5-3.9,1.8-5.7Z"/>
        <path class="st7" d="M218.3,522.9h1.5v-4.7h-1.2v-.5c.6-.1,1-.3,1.3-.5h.6v5.7h1.3v.7h-3.6l.1-.7h0Z"/>
      </g>
      <g>
        <path class="st7" d="M162,532.3c0-2.1,1.2-3.4,2.9-3.4.8,0,1.4.4,1.8.8l-.4.5c-.3-.4-.8-.6-1.3-.6-1.2,0-2.1,1-2.1,2.6s.8,2.7,2,2.7c.6,0,1.1-.3,1.5-.7l.5.5c-.5.6-1.2.9-2,.9-1.7.1-2.9-1.2-2.9-3.3Z"/>
        <path class="st7" d="M168.1,529h1l1.3,3.5c.2.5.3.9.5,1.4h0c.2-.4.3-.9.4-1.4l1.2-3.5h1v6.6h-.8v-3.6c0-.6.1-1.4.1-1.9h0l-.5,1.5-1.2,3.4h-.5l-1.2-3.4-.5-1.5h0c0,.6.1,1.4.1,1.9v3.6h-.7v-6.6h-.2Z"/>
        <path class="st7" d="M176.4,533l-2-4h.9l.8,1.8c.2.5.4.9.6,1.4h0c.2-.5.5-.9.7-1.4l.8-1.8h.9l-2,4v2.5h-.8v-2.5h.1Z"/>
        <path class="st7" d="M180.1,529h.8v3.3h0l2.7-3.3h.9l-2,2.5,2.4,4.1h-.9l-2-3.4-1.1,1.3v2.1h-.8v-6.6h0Z"/>
        <path class="st7" d="M185.6,531.5c0-.4.3-.6.6-.6s.6.3.6.6c0,.4-.3.6-.6.6s-.6-.3-.6-.6ZM185.6,535.1c0-.4.3-.6.6-.6s.6.3.6.6c0,.4-.3.6-.6.6-.3,0-.6-.3-.6-.6Z"/>
        <path class="st7" d="M189.9,532.4c0-2.1.8-3.3,2-3.3,1.3,0,2,1.1,2,3.3s-.8,3.3-2,3.3-2-1.2-2-3.3ZM193.2,532.4c0-1.9-.5-2.6-1.2-2.6s-1.2.8-1.2,2.6.5,2.7,1.2,2.7c.7-.1,1.2-.9,1.2-2.7Z"/>
        <path class="st7" d="M194.9,536.8c.6-.2.9-.7.9-1.2h-.1c-.3,0-.6-.2-.6-.6s.3-.6.6-.6c.4,0,.7.4.7,1,0,.9-.5,1.5-1.3,1.9l-.2-.5Z"/>
        <path class="st7" d="M199.4,532.4c0-2.1.8-3.3,2-3.3,1.3,0,2,1.1,2,3.3s-.8,3.3-2,3.3c-1.3,0-2-1.2-2-3.3ZM202.7,532.4c0-1.9-.5-2.6-1.2-2.6s-1.2.8-1.2,2.6.5,2.7,1.2,2.7c.7-.1,1.2-.9,1.2-2.7Z"/>
        <path class="st7" d="M204.4,536.8c.6-.2.9-.7.9-1.2h-.1c-.3,0-.6-.2-.6-.6s.3-.6.6-.6c.4,0,.7.4.7,1,0,.9-.5,1.5-1.3,1.9l-.2-.5Z"/>
        <path class="st7" d="M208.8,532.4c0-2.1.8-3.3,2-3.3,1.3,0,2,1.1,2,3.3s-.8,3.3-2,3.3-2-1.2-2-3.3ZM212.1,532.4c0-1.9-.5-2.6-1.2-2.6s-1.2.8-1.2,2.6.5,2.7,1.2,2.7c.7-.1,1.2-.9,1.2-2.7Z"/>
        <path class="st7" d="M213.8,536.8c.6-.2.9-.7.9-1.2h-.1c-.3,0-.6-.2-.6-.6s.3-.6.6-.6c.4,0,.7.4.7,1,0,.9-.5,1.5-1.3,1.9l-.2-.5Z"/>
      </g>
      <g>
        <path class="st7" d="M217.5,533.9c0-.8.6-1.4,1.2-1.7h0c-.5-.3-.9-.8-.9-1.5,0-1,.8-1.6,1.8-1.6,1.1,0,1.8.7,1.8,1.7,0,.7-.5,1.2-.9,1.5h0c.6.3,1.1.8,1.1,1.6,0,.9-.8,1.7-2.1,1.7-1.2.1-2-.6-2-1.7ZM220.8,534c0-.8-.8-1.1-1.7-1.5-.5.3-.9.8-.9,1.4,0,.7.6,1.2,1.4,1.2.7,0,1.2-.5,1.2-1.1ZM220.7,530.8c0-.6-.4-1.1-1.1-1.1-.6,0-1,.4-1,1,0,.8.7,1.1,1.5,1.4.3-.4.6-.8.6-1.3Z"/>
        <path class="st7" d="M222.4,533.9c0-.8.6-1.4,1.2-1.7h0c-.5-.3-.9-.8-.9-1.5,0-1,.8-1.6,1.8-1.6,1.1,0,1.8.7,1.8,1.7,0,.7-.5,1.2-.9,1.5h0c.6.3,1.1.8,1.1,1.6,0,.9-.8,1.7-2.1,1.7-1.1.1-2-.6-2-1.7ZM225.8,534c0-.8-.8-1.1-1.7-1.5-.5.3-.9.8-.9,1.4,0,.7.6,1.2,1.4,1.2.7,0,1.2-.5,1.2-1.1ZM225.6,530.8c0-.6-.4-1.1-1.1-1.1-.6,0-1,.4-1,1,0,.8.7,1.1,1.5,1.4.4-.4.6-.8.6-1.3Z"/>
      </g>
    </g>
    <rect class="st9" x="47.3" y="471.6" width="57.1" height="13.5"/>
    <rect class="st10" x="161.4" y="471.6" width="57.1" height="13.5"/>
  </g>
  <g>
    <g>
      <path class="st8" d="M102.7,67.9h30.1v-33.3c0-9.3-4.4-14-13.4-14h-3.4c-8.9,0-13.4,4.7-13.4,14l.1,33.3h0ZM102.7,89.2l.1,36.6c0,9.3,4.5,13.9,13.4,13.9h3.9c8.9,0,13.4-4.6,13.4-13.9v-18h20.5v17.1c0,23.5-11.4,35.5-34,35.5h-4.5c-22.6,0-34-11.9-34-32.7V38.2C81.5,11.9,92.9,0,115.5,0h4.5c22.6,0,34,11.9,34,35.4l-.1,53.7-51.2.1h0Z"/>
      <path class="st8" d="M188.9,131.3c5.8,5.2,12.5,8.1,19.5,8.1,7.8,0,12.3-3.8,12.3-12.8V33.6c0-9-4.5-12.8-12.3-12.8-7,0-13.7,2.9-19.5,8.1v102.4ZM167.7,1.8h21.2v10.2C193.9,6.5,202.5.1,214.8.1c18.1,0,27,12.5,27,31.1v98.2c0,18.6-8.9,31.1-27,31.1-12.3,0-20.9-6.1-25.9-11.3v50.6h-21.2V1.8Z"/>
      <path class="st8" d="M305.3,132.2v-51.7l-19.2,7.6c-7.8,3.2-10.3,7.3-10.3,16.3v23.8c0,7.6,3.6,11.3,10.3,11.3s12.3-2.3,19.2-7.3M254.6,104c0-19.5,6.1-27.3,22.3-33.1l28.4-10.2v-26.1c0-9.3-4.5-14.2-13.4-14.2h-3.4c-8.9,0-13.4,4.9-13.4,14.2v22.2h-20.6v-21.3C254.5,12,265.9.1,288.5.1h4c22.6,0,34,11.9,34,35.4v123.2h-21.2v-9.9c-5.8,5.8-13.7,11.6-25.9,11.6-17,0-24.8-10.2-24.8-27.6v-28.8h0Z"/>
      <path class="st8" d="M412.1,158.7h-21.2V32.3c0-7.8-3.6-11.3-10-11.3-5.8,0-12,2.3-19.5,7.8v129.9h-21.2V1.8h21.2v10.2c6.2-6.1,14.2-12,25.9-12,10.9,0,18.1,4.7,22,12.8,7.6-6.7,16.5-12.8,28.7-12.8,16.4,0,24.8,10.5,24.8,27.6v131h-21.2V32.3c0-7.8-3.6-11.3-10-11.3-5.8,0-12,2.3-19.5,7.8v129.9h0Z"/>
    </g>
    <polygon class="st8" points="0 70.2 0 91.4 54.4 144.7 54.4 115.2 18.8 80.5 54.4 45.1 54.4 16.2 0 70.2"/>
    <polygon class="st8" points="489.7 45.1 525.3 80.5 489.7 115.3 489.7 144.7 544.1 91.4 544.1 70.2 489.7 16.2 489.7 45.1"/>
  </g>
</svg>