<?xml version="1.0" encoding="UTF-8"?>
<svg xmlns="http://www.w3.org/2000/svg" version="1.1" viewBox="0 0 685.71 474.56">
  <!-- Generator: Adobe Illustrator 30.1.0, SVG Export Plug-In . SVG Version: 2.1.1 Build 136)  -->
  <defs>
    <style>
      .st0 {
        fill: #9ca3af;
      }
    </style>
  </defs>
  <g id="Layer_1" focusable="false">
    <path class="st0" d="M85.12,474.84c0-2.97,29.92-79.85,31.69-81.41,1.61-1.43,3.91-1.77,11.46-1.77,5.19,0,10.18,0,11.09.63.91.57,2.57,2.46,3.69,4.63,2.08,4.06,31.35,76.29,31.35,77.35,0,.57-5.69.57-12.65.57h-12.65l-2.69-8.62-2.69-8.62h-29.01l-2.96,8.88-2.95,8.87h-11.84c-7.92,0-11.84,0-11.84-.8v.29ZM136.86,439.64c0-1.54-7.58-23.63-8.12-23.63s-8.12,22.07-8.12,23.63c0,.57,3.65.74,8.12.74s8.12-.57,8.12-.74ZM227.45,461.45c-4.51-7.98-10.88-19.28-14.14-25.12l-5.93-10.62-.29,24.57-.29,24.57h-23.85l.4-37.28c.4-40.26.69-42.4,5.86-44.75,2.65-1.2,14.33-1.6,17.01-.57.85.57,7.79,10.14,15.41,21.81s14.47,21.22,15.21,21.22,6.91-9.02,13.71-20.03c6.8-11.02,13.27-20.83,14.38-21.81,2.36-2.06,15.27-2.51,19.33-.69,5.68,2.57,5.79,3.49,5.79,44.96v38.14h-22.29l-.29-26.62-.29-26.62-14.36,26.37c-7.9,14.5-15,26.5-15.79,26.66-.91,0-4.43-5.03-9.64-14.2l.03.02ZM423.63,474.88c-27.5-.57-30.39-.69-31.59-2.34-.99-1.37-1.5-10.94-2.06-38.55-.4-20.21-.57-37.89-.34-39.28.34-2.51.4-2.51,11.53-2.51h11.16l.29,30.35c.17,20.33.64,30.8,1.39,31.7.84,1.03,4.79,1.37,15.74,1.37s14.73.57,15.06,1.26c3.15,9.09,5.15,13.47,7.27,15.99,1.4,1.66,2.39,2.91,2.21,2.8-.17,0-13.96-.57-30.61-.74l-.05-.05ZM469.12,474.02c-5.16-2.46-6.85-4.4-10.35-11.9l-2.83-6.06v-23.84c0-22.93.11-24.01,2.33-28.21,2.8-5.26,9.49-9.78,16.82-11.42,3.3-.74,12.61-1.03,25.49-.8,18.36.57,20.68.57,24.35,2.51,4.95,2.63,7.65,5.54,10.79,11.5,2.32,4.4,2.39,5.31,2.39,27.9s-.11,23.57-2.19,27.39c-2.93,5.43-6.94,9.08-12.84,11.69-4.37,1.94-7.27,2.23-27.39,2.63-20.69.57-22.83.57-26.56-1.43v.03ZM509.65,455.14c1.89-.8,3.89-2.29,4.43-3.31.57-1.03,1.33-8.53,1.73-16.67,1.17-23.48-.17-25.26-19.26-25.26-11.03,0-15.89,1.26-17.1,4.4-.29.8-.88,8.46-1.26,17.03-.78,17.2.23,22.3,4.83,24.15,3.8,1.54,22.72,1.26,26.63-.57v.23ZM14.61,472.92c-5.23-2.4-8.95-6.45-11.84-12.79-2.12-4.63-2.34-6.83-2.69-26.41-.23-13.95.02-22.83.78-25.63,1.41-5.26,6.07-10.73,11.63-13.7,3.97-2.11,5.54-2.23,34.37-2.57l30.22-.57-.29,9.45-.29,9.46-24.18.57-24.18.57-2.45,2.86c-2.36,2.74-2.45,3.43-2.45,18.58,0,8.85.46,16.59,1.05,17.69,2.02,3.77,6.36,5.03,17.47,5.03,6.81,0,10.93-.57,11.72-1.2.74-.74,1.22-4.34,1.22-9.23,0-7.67-.11-8.14-3.18-10.99l-3.18-2.97,15.1.57h15.1l.29,15.22c.34,17.26-.46,21.51-4.97,25.29l-3.1,2.63-26.05-.02c-23.19-.02-26.49,0-30.1-1.89v.06ZM307.22,471.89l-2.97-2.97v-33.81c.03-36.97.05-37.13,6-41.14,3.39-2.29,3.83-2.29,34.77-2.29h31.34l-.29,8.88-.29,8.87h-23.25c-15.07,0-23.73.69-24.6,1.37-1.7,1.43-1.8,11.18-.11,12.85.87.86,7.26,1.2,22.32,1.2h21.1v17.25h-21.78c-20.49,0-21.84,0-22.83,1.94-1.82,3.37-1.26,7.92,1.21,9.65,1.88,1.31,6.09,1.6,25.36,1.6h23.11v19.27h-66.1l-2.97-2.97-.03.3ZM551.82,437.57c.02-40.95.03-41.09,6.09-44.14,3.27-1.66,7.73-1.77,58.91-1.54h55.37l3.74,2.86c3.58,2.74,9.77,11.99,9.79,14.65,0,.97-4.31,1.26-18.25,1.26h-18.26v63.91h-22.32v-64.93h-52.84l.29,7.86.29,7.86,12.17.57,12.17.57.29,7.27.29,7.26-11.05.57c-7.44,0-11.6.8-12.72,1.71-1.42,1.2-1.67,3.71-1.67,16.49v15.09h-22.32v-37.28s.05-.05.05-.05ZM254.04,351.08c-58.75-1.43-105.27-3.89-118.7-6.2-12-2.06-22.29-8.57-30.51-19.26-8.88-11.54-13.75-24.12-17.23-44.54-1.91-11.19-3.19-63.39-3.62-147.11-.23-46.17-.06-53.3,1.5-61.35,3.77-19.45,10.72-32.96,22.88-44.43,13.7-12.92,28.75-19.1,53.7-22.05,67.39-7.97,282.38-8.19,332.42-.57,26.97,4.23,48.31,15.07,61.85,31.41,13.71,16.55,23.81,42.51,26.81,68.88,1.56,13.75,1.75,139.8.23,151.17-3.97,29.54-12.42,52.54-24.86,67.62-9.64,11.69-29.92,25.2-37.82,25.21-3.16,0-11.38-5.2-12.22-7.74-.23-.63,2.79-4.34,6.66-8.27,16.85-17.06,25.12-35.28,29.32-64.65,1.41-9.82,1.73-19.42,1.69-49.71-.05-37.31-1.14-58.25-4.08-78.63-2.21-15.33-3.99-21.6-9.2-32.39-8.41-17.43-25.16-31.19-41.93-34.45-11.93-2.34-82.14-3.66-185.66-3.54-114.3,0-111.99.01-124.46,6.3-9.03,4.57-17.25,14.57-21.67,26.38-3.15,8.43-3.94,21.49-4.08,68.27-.11,36.6.11,44.17,1.55,50.98,2.29,10.81,4.93,17.17,10.16,24.45,8.81,12.25,16.93,17.78,28.96,19.74,16.1,2.63,224.63,5.43,235.49,3.2,7.34-1.54,12.14-5.6,16.16-13.78,3.11-6.32,3.22-6.99,3.29-20.01.11-23.29-1.96-30.4-9.61-32.92-2.76-.91-16.51-.97-57.28,0-29.51.57-78.99,1.37-109.95,1.83-65.76.97-63.51.69-73.47,10.55l-6.01,5.97-11.75-1.71c-6.46-.91-12.16-2.06-12.65-2.57-.51-.57-1.13-17.05-1.41-36.81-.46-34.41-.4-36.23,1.63-42.96,3.94-12.97,12.4-21.9,25.44-26.82,4.97-1.89,8.95-2.23,31.56-2.97,48.65-1.6,152.15-2.17,193.77-1.09,38.17.97,41.87,1.26,52.13,3.6,15.64,3.6,26.74,9.21,35.16,17.71,12,12.12,18.3,24.24,21.95,42.21,1.63,8.03,1.86,14.53,1.86,53.77,0,31.69-.4,47.06-1.32,52.98-5.99,37.86-31.93,64.39-69.7,71.29-14.46,2.63-145.16,4.57-206.96,3.03h-.01Z"/>
  </g>
</svg>