<?xml version="1.0" encoding="UTF-8"?>
<svg id="Layer_1" xmlns="http://www.w3.org/2000/svg" version="1.1" viewBox="0 0 621.85 115.12">
  <!-- Generator: Adobe Illustrator 30.1.0, SVG Export Plug-In . SVG Version: 2.1.1 Build 136)  -->
  <defs>
    <style>
      .st0 {
        fill: #9ca3af;
      }
    </style>
  </defs>
  <path class="st0" d="M40.76,52.86h28.61c-4.68,16.64-21.96,26.33-38.59,21.65-16.64-4.68-26.33-21.96-21.65-38.59C13.81,19.28,31.09,9.58,47.72,14.27c9.26,2.61,16.81,9.33,20.47,18.22h8.49C70.1,11.83,48.02.41,27.36,6.99,6.7,13.57-4.72,35.65,1.86,56.31c5.18,16.29,20.31,27.35,37.4,27.35,12-.06,23.29-5.66,30.6-15.18v13.49h7.27v-37h-36.37v7.89Z"/>
  <rect class="st0" x="90.4" y="7.57" width="7.83" height="74.39"/>
  <rect class="st0" x="321.77" y="7.57" width="7.84" height="74.3"/>
  <path class="st0" d="M139.05,76.58c-12,0-21.81-10.34-21.81-22.35s9.77-22.29,21.81-22.29,21.81,10.26,21.81,22.26-9.8,22.35-21.81,22.35M139.05,24.48c-16.41,0-29.72,13.32-29.71,29.73,0,16.41,13.32,29.72,29.73,29.71,16.41,0,29.71-13.31,29.71-29.72-.02-16.41-13.32-29.71-29.73-29.72"/>
  <path class="st0" d="M207.6,76.58c-12.05,0-21.82-10.34-21.82-22.35s9.77-22.29,21.82-22.29,21.79,10.26,21.79,22.26-9.77,22.35-21.79,22.35M207.93,23.96c-8.48.01-16.54,3.65-22.16,10V7.57h-7.84v74.4h7.82v-7.48c5.62,6.35,13.68,9.99,22.16,10,16.71-.3,30.01-14.1,29.7-30.81-.3-16.28-13.42-29.41-29.7-29.7"/>
  <path class="st0" d="M278.3,76.55c-12,0-21.81-10.34-21.81-22.37s9.79-22.28,21.81-22.28,21.8,10.3,21.8,22.3-9.76,22.37-21.8,22.37M300.16,34.08c-11.13-12.46-30.26-13.54-42.73-2.41-12.46,11.13-13.54,30.26-2.41,42.73s30.26,13.54,42.73,2.41c.85-.76,1.65-1.56,2.41-2.41v7.59h7.92V27.49h-7.92v6.59Z"/>
  <rect class="st0" x="535.71" width="13.89" height="13.15"/>
  <polygon class="st0" points="357.54 7.57 344.81 7.57 344.81 69.95 344.81 81.9 386.49 81.9 386.49 69.95 357.54 69.95 357.54 7.57"/>
  <rect class="st0" x="535.71" y="23.41" width="13.89" height="58.38"/>
  <path class="st0" d="M421.75,71.76c-9.29,0-16.84-8.08-16.84-18s7.55-18,16.84-18,16.83,8.08,16.83,18-7.54,18-16.83,18M421.75,23.22c-16.84-.01-30.51,13.64-30.52,30.48s13.64,30.51,30.48,30.52c16.84.01,30.51-13.64,30.52-30.48v-.02c0-16.84-13.64-30.5-30.48-30.52"/>
  <path class="st0" d="M607.49,61.93c-2.64,5.99-8.52,9.89-15.06,10-9.29,0-16.83-8.11-16.83-18.07,0-10.88,7.54-18.06,16.83-18.06,6.19.09,11.83,3.59,14.65,9.11h14.54c-4.91-16.15-21.99-25.25-38.13-20.34-16.15,4.91-25.25,21.99-20.34,38.13,4.91,16.15,21.99,25.25,38.13,20.34,10.03-3.05,17.79-11.03,20.57-21.13l-14.36.02Z"/>
  <path class="st0" d="M489.55,102.08c-6.24-.11-12.08-3.13-15.77-8.16l-12.33,6c6.04,9.66,16.71,15.43,28.1,15.19,16.08-.13,29.44-12.43,30.89-28.45h-13.94c-1.2,8.71-8.33,15.41-17,15.41"/>
  <path class="st0" d="M490.2,72.05c-9.25,0-16.76-8.08-16.76-18s7.51-18,16.76-18,16.8,8,16.8,18-7.52,18-16.8,18M508.04,29.49c-13.58-9.84-32.56-6.81-42.4,6.76-9.84,13.58-6.81,32.56,6.76,42.4,13.58,9.84,32.56,6.81,42.4-6.76,3.73-5.15,5.75-11.33,5.78-17.69v-30.74h-12.54v6.03Z"/>
  <path class="st0" d="M633.54,13.2c.07-4.55,3.81-8.19,8.36-8.12s8.19,3.81,8.12,8.36c-.07,4.5-3.73,8.11-8.23,8.12-4.52.04-8.21-3.59-8.25-8.11,0-.08,0-.17,0-.25ZM648.74,13.2c0-4.21-2.94-7.3-6.95-7.3s-6.93,3.09-6.93,7.3c-.21,3.83,2.73,7.11,6.57,7.31,3.83.21,7.11-2.73,7.31-6.57.01-.25.01-.5,0-.75ZM638.52,8.65h4.15c1.43-.15,2.71.89,2.86,2.32,0,.07.01.14.01.2.04,1.07-.74,1.99-1.8,2.14h0c1,.26,1.37.78,1.49,1.86.14,1.23.14,2.15.42,2.26v.15h-1.72c-.26-.12-.29-1.06-.37-2.09.02-.82-.62-1.51-1.44-1.53-.09,0-.17,0-.26.01h-1.6v3.61h-1.75v-8.93ZM640.27,12.65h2c1,0,1.53-.51,1.53-1.28s-.5-1.26-1.5-1.26h-2l-.03,2.54Z"/>
</svg>