<?xml version="1.0" encoding="UTF-8"?>
<svg id="Layer_1" xmlns="http://www.w3.org/2000/svg" version="1.1" viewBox="0 0 800 170.79">
  <!-- Generator: Adobe Illustrator 30.1.0, SVG Export Plug-In . SVG Version: 2.1.1 Build 136)  -->
  <defs>
    <style>
      .st0 {
        fill: #9ca3af;
      }
    </style>
  </defs>
  <path class="st0" d="M800,77.26v-14.07h-17.47v-21.87l-.59.18-16.41,5.02-.32.1v16.57h-25.9v-9.23c0-4.3.96-7.59,2.86-9.78,1.88-2.17,4.57-3.27,8-3.27,2.47,0,5.02.58,7.59,1.73l.64.29v-14.82l-.3-.11c-2.4-.86-5.66-1.3-9.7-1.3-5.1,0-9.73,1.11-13.76,3.31-4.04,2.2-7.22,5.34-9.45,9.34-2.22,3.99-3.34,8.6-3.34,13.7v10.15h-12.17v14.07h12.17v59.27h17.46v-59.27h25.9v37.67c0,15.51,7.32,23.37,21.75,23.37,2.37,0,4.87-.28,7.42-.82,2.59-.56,4.36-1.12,5.4-1.71l.23-.14v-14.2l-.71.47c-.95.63-2.13,1.15-3.51,1.53-1.39.39-2.55.59-3.45.59-3.38,0-5.88-.91-7.43-2.71-1.57-1.81-2.37-4.99-2.37-9.42v-34.63h17.47ZM670.68,124.02c-6.34,0-11.34-2.1-14.86-6.24-3.54-4.16-5.34-10.09-5.34-17.63s1.8-13.86,5.34-18.1c3.52-4.21,8.47-6.34,14.71-6.34s10.88,2.04,14.33,6.06c3.47,4.05,5.23,10.08,5.23,17.95s-1.66,14.08-4.92,18.17c-3.24,4.06-8.12,6.12-14.5,6.12M671.45,61.43c-12.09,0-21.7,3.54-28.55,10.53-6.84,6.99-10.31,16.66-10.31,28.75s3.39,20.72,10.07,27.45c6.68,6.73,15.77,10.14,27.02,10.14s21.14-3.59,27.98-10.68c6.84-7.08,10.31-16.66,10.31-28.47s-3.25-20.97-9.68-27.65c-6.42-6.69-15.46-10.08-26.85-10.08M604.43,61.43c-8.23,0-15.03,2.1-20.23,6.25-5.23,4.17-7.88,9.65-7.88,16.27,0,3.44.57,6.5,1.7,9.1,1.13,2.6,2.89,4.89,5.22,6.82,2.31,1.91,5.88,3.91,10.62,5.94,3.98,1.64,6.94,3.02,8.83,4.11,1.84,1.07,3.15,2.14,3.89,3.19.72,1.02,1.08,2.43,1.08,4.16,0,4.93-3.69,7.32-11.28,7.32-2.82,0-6.03-.59-9.55-1.75-3.49-1.14-6.79-2.81-9.78-4.96l-.73-.52v16.81l.27.12c2.47,1.14,5.59,2.1,9.26,2.86,3.67.76,7,1.14,9.89,1.14,8.93,0,16.12-2.11,21.36-6.29,5.28-4.2,7.95-9.81,7.95-16.66,0-4.94-1.44-9.18-4.28-12.6-2.82-3.39-7.71-6.5-14.54-9.26-5.44-2.18-8.92-3.99-10.36-5.38-1.39-1.34-2.09-3.24-2.09-5.65,0-2.13.87-3.84,2.65-5.23,1.8-1.39,4.3-2.1,7.43-2.1,2.91,0,5.89.46,8.85,1.36,2.96.9,5.56,2.11,7.73,3.58l.71.49v-15.95l-.27-.12c-2-.86-4.64-1.59-7.85-2.19-3.19-.59-6.09-.89-8.6-.89M530.79,124.02c-6.34,0-11.34-2.1-14.86-6.24-3.54-4.16-5.34-10.09-5.34-17.63s1.79-13.86,5.34-18.1c3.52-4.21,8.47-6.34,14.71-6.34s10.87,2.04,14.33,6.06c3.47,4.05,5.23,10.08,5.23,17.95s-1.66,14.08-4.92,18.17c-3.24,4.06-8.12,6.12-14.5,6.12M531.57,61.43c-12.1,0-21.7,3.54-28.55,10.53-6.84,6.99-10.32,16.66-10.32,28.75s3.39,20.72,10.07,27.45c6.68,6.73,15.77,10.14,27.02,10.14s21.14-3.59,27.98-10.68c6.84-7.08,10.31-16.66,10.31-28.47s-3.25-20.97-9.68-27.65c-6.43-6.69-15.46-10.08-26.85-10.08M466.2,75.89v-12.7h-17.25v73.34h17.25v-37.52c0-6.38,1.45-11.62,4.3-15.58,2.82-3.91,6.57-5.89,11.16-5.89,1.55,0,3.3.26,5.19.76,1.87.5,3.22,1.05,4.02,1.63l.73.53v-17.39l-.28-.12c-1.61-.68-3.88-1.03-6.76-1.03-4.34,0-8.21,1.39-11.54,4.14-2.92,2.41-5.02,5.72-6.64,9.84h-.18ZM418.05,61.43c-7.91,0-14.97,1.7-20.98,5.04-6.02,3.35-10.67,8.14-13.84,14.23-3.15,6.07-4.75,13.17-4.75,21.08,0,6.93,1.55,13.29,4.62,18.89,3.07,5.61,7.41,10.01,12.91,13.05,5.49,3.04,11.84,4.58,18.86,4.58,8.2,0,15.2-1.64,20.81-4.87l.23-.13v-15.81l-.73.53c-2.54,1.85-5.38,3.33-8.44,4.39-3.05,1.06-5.83,1.6-8.27,1.6-6.77,0-12.2-2.12-16.15-6.29-3.95-4.18-5.96-10.05-5.96-17.44s2.09-13.46,6.21-17.9c4.11-4.43,9.55-6.68,16.18-6.68,5.67,0,11.2,1.92,16.42,5.71l.72.53v-16.65l-.23-.13c-1.97-1.1-4.65-2.01-7.98-2.7-3.32-.69-6.56-1.03-9.64-1.03M366.6,63.19h-17.25v73.34h17.25s0-73.34,0-73.34ZM358.15,31.95c-2.84,0-5.32.97-7.35,2.88-2.04,1.92-3.08,4.34-3.08,7.19s1.02,5.18,3.05,7.05c2.01,1.86,4.49,2.81,7.38,2.81s5.38-.94,7.42-2.81c2.05-1.87,3.09-4.25,3.09-7.06s-1.01-5.15-3-7.12c-1.99-1.96-4.51-2.96-7.5-2.96M315.11,57.78v78.75h17.61V34.2h-24.37l-30.97,76.01-30.06-76.01h-25.36v102.33h16.54V57.78h.57l31.74,78.76h12.49l31.24-78.75h.57Z"/>
  <path class="st0" d="M81.16,81.16H0V0h81.16v81.16Z"/>
  <path class="st0" d="M170.76,81.16h-81.15V0h81.15v81.16h0Z"/>
  <path class="st0" d="M81.15,170.79H0v-81.15h81.15v81.15Z"/>
  <path class="st0" d="M170.76,170.79h-81.15v-81.15h81.15v81.15h0Z"/>
</svg>