<?xml version="1.0" encoding="UTF-8"?>
<svg id="Layer_1" xmlns="http://www.w3.org/2000/svg" version="1.1" viewBox="0 0 142.36 78.7">
  <!-- Generator: Adobe Illustrator 30.1.0, SVG Export Plug-In . SVG Version: 2.1.1 Build 136)  -->
  <defs>
    <style>
      .st0 {
        fill: #9ca3af;
      }
    </style>
  </defs>
  <polygon class="st0" points="142.36 63.1 142.36 78.7 118 58.54 93.65 78.7 93.65 63.1 118 42.93 142.36 63.1"/>
  <path class="st0" d="M0,24.25h12.56v8.49h.22c1.17-2.65,3.21-4.98,6.12-7,2.9-2.02,6.33-3.03,10.3-3.03,3.45,0,6.4.61,8.87,1.82,2.46,1.21,4.48,2.81,6.06,4.79s2.74,4.26,3.47,6.83c.74,2.57,1.11,5.22,1.11,7.93v33.06h-13.23v-29.31c0-1.54-.11-3.16-.33-4.85-.22-1.69-.7-3.21-1.43-4.57-.73-1.36-1.75-2.48-3.03-3.36-1.29-.88-3-1.32-5.12-1.32s-3.97.42-5.51,1.27c-1.55.85-2.81,1.93-3.81,3.25-.99,1.32-1.75,2.85-2.26,4.57-.52,1.73-.77,3.47-.77,5.24v29.09H0V24.25Z"/>
  <polygon class="st0" points="142.36 38.37 142.36 22.77 118 42.93 93.65 22.77 93.65 38.37 118 58.54 142.36 38.37"/>
  <polygon class="st0" points="142.36 63.1 142.36 78.7 118 58.54 93.65 78.7 93.65 63.1 118 42.93 142.36 63.1"/>
  <rect class="st0" x="64.57" y="24.25" width="13.22" height="52.89"/>
  <path class="st0" d="M79.34,8.16c0,4.51-3.65,8.16-8.16,8.16s-8.16-3.65-8.16-8.16c0-4.51,3.65-8.16,8.16-8.16s8.16,3.65,8.16,8.16"/>
</svg>