<?xml version="1.0" encoding="UTF-8"?>
<svg id="Layer_1" xmlns="http://www.w3.org/2000/svg" version="1.1" viewBox="0 0 142 26.33">
  <!-- Generator: Adobe Illustrator 30.1.0, SVG Export Plug-In . SVG Version: 2.1.1 Build 136)  -->
  <defs>
    <style>
      .st0 {
        fill: #9ca3af;
      }
    </style>
  </defs>
  <path class="st0" d="M70.38,8.79c-1.32-1.27-2.95-1.89-4.89-1.89s-3.57.62-4.89,1.89c-1.32,1.27-2,2.91-2,4.95s.67,3.7,2.02,5c1.32,1.27,2.95,1.92,4.86,1.92s3.54-.65,4.86-1.92c1.35-1.3,2.02-2.97,2.02-5s-.67-3.67-2-4.95ZM68.4,16.79c-.78.77-1.76,1.16-2.91,1.16s-2.13-.38-2.91-1.16c-.8-.79-1.21-1.8-1.21-3.05s.41-2.2,1.21-2.97c.79-.76,1.76-1.15,2.91-1.15s2.12.39,2.91,1.15c.79.77,1.21,1.74,1.21,2.97s-.41,2.26-1.21,3.05Z"/>
  <path class="st0" d="M108.53,8.79c-1.32-1.27-2.95-1.89-4.89-1.89s-3.57.62-4.89,1.89c-1.32,1.27-2,2.91-2,4.95s.67,3.7,2.02,5c1.32,1.27,2.95,1.92,4.86,1.92s3.54-.65,4.86-1.92c1.35-1.3,2.02-2.97,2.02-5s-.67-3.67-1.99-4.95ZM106.55,16.79c-.78.77-1.76,1.16-2.91,1.16s-2.13-.38-2.91-1.16c-.8-.79-1.21-1.8-1.21-3.05s.41-2.2,1.21-2.97c.79-.76,1.76-1.15,2.91-1.15s2.12.39,2.91,1.15c.79.77,1.21,1.74,1.21,2.97s-.41,2.26-1.21,3.05Z"/>
  <path class="st0" d="M140.01,8.79c-1.32-1.27-2.95-1.89-4.89-1.89s-3.57.62-4.89,1.89c-1.32,1.27-1.99,2.91-1.99,4.95s.67,3.7,2.02,5c1.32,1.27,2.95,1.92,4.86,1.92s3.54-.65,4.86-1.92c1.35-1.3,2.02-2.97,2.02-5s-.67-3.67-1.99-4.95ZM138.03,16.79c-.78.77-1.76,1.16-2.91,1.16s-2.13-.38-2.91-1.16c-.8-.79-1.21-1.8-1.21-3.05s.41-2.2,1.21-2.97c.79-.76,1.76-1.15,2.91-1.15s2.12.39,2.91,1.15c.79.77,1.21,1.74,1.21,2.97s-.41,2.26-1.21,3.05Z"/>
  <path class="st0" d="M45.95,8.83c-1.32-1.27-2.95-1.89-4.89-1.89-1.53,0-3.46.68-4.67,1.89-1.21,1.21-2.02,2.67-2.02,5.46v10.59c0,.78.61,1.45,1.38,1.45s1.38-.67,1.38-1.45v-10.59c0-1.63.43-2.71,1.2-3.49.77-.78,1.85-1.15,2.73-1.15,1.15,0,2.12.39,2.91,1.15.79.77,1.21,1.74,1.21,2.97s-.41,2.26-1.21,3.05c-.78.77-1.76,1.15-2.91,1.15h-.74c-.76,0-1.41.6-1.41,1.36s.65,1.36,1.41,1.36h.74c1.91,0,3.54-.65,4.86-1.92,1.35-1.3,2.02-2.97,2.02-5s-.67-3.67-2-4.95h0Z"/>
  <path class="st0" d="M114.43,18.76c1.32,1.27,2.95,1.89,4.89,1.89,1.53,0,3.46-.68,4.67-1.89,1.21-1.21,2.02-2.67,2.02-5.46V2.71c0-.78-.61-1.45-1.38-1.45s-1.38.67-1.38,1.45v10.59c0,1.63-.43,2.71-1.2,3.49-.77.78-1.85,1.15-2.73,1.15-1.15,0-2.12-.39-2.91-1.15-.79-.77-1.21-1.74-1.21-2.97s.41-2.26,1.21-3.05c.78-.77,1.76-1.15,2.91-1.15h.74c.76,0,1.41-.6,1.41-1.36s-.65-1.36-1.41-1.36h-.74c-1.91,0-3.54.65-4.86,1.92-1.35,1.3-2.02,2.97-2.02,5s.67,3.67,2,4.95h0Z"/>
  <path class="st0" d="M56.53,7.04h-.33c-1.42,0-2.42.57-3.18,2.14v-.69c0-.78-.61-1.45-1.38-1.45s-1.38.67-1.38,1.45v10.63c0,.78.61,1.45,1.38,1.45s1.38-.67,1.38-1.45v-3.72c0-3.74,1.36-5.71,3.51-5.71.73,0,1.36-.58,1.36-1.32s-.63-1.32-1.36-1.32h0Z"/>
  <path class="st0" d="M92.88,8.61c-1.09-1.13-2.44-1.68-4.04-1.68s-3.22.68-4.32,2.2c-1.1-1.52-2.72-2.2-4.32-2.2s-2.95.55-4.04,1.68c-1.09,1.13-1.65,2.58-1.65,4.38v6.12c0,.78.61,1.45,1.38,1.45s1.38-.67,1.38-1.45v-6.12c0-.99.29-1.79.86-2.41.56-.62,1.25-.93,2.07-.93s1.51.31,2.07.93c.57.62.86,1.41.86,2.41v6.12c0,.78.61,1.45,1.38,1.45s1.38-.67,1.38-1.45v-6.12c0-.99.29-1.79.86-2.41.56-.62,1.25-.93,2.07-.93s1.51.31,2.07.93c.57.62.86,1.41.86,2.41v6.12c0,.78.61,1.45,1.38,1.45s1.38-.67,1.38-1.45v-6.12c0-1.8-.56-3.26-1.65-4.38h0Z"/>
  <path class="st0" d="M21.29,12.36c-.78,0-1.41.63-1.41,1.42,0,1.75-.68,3.39-1.91,4.63-1.23,1.24-2.86,1.92-4.6,1.92s-3.37-.68-4.6-1.92c-1.23-1.24-1.91-2.88-1.91-4.63s.68-3.39,1.91-4.63c1.23-1.24,2.86-1.92,4.6-1.92.78,0,1.41-.63,1.41-1.42s-.63-1.42-1.41-1.42c-1.75,0-3.43.48-4.88,1.39-1.04.62-2.32-.3-2.06-1.49.23-1.05-.06-2.2-.87-3.01C4.28,0,2.22,0,.95,1.28-.32,2.56-.32,4.63.95,5.91c.81.82,1.95,1.11,2.99.88,1.18-.26,2.1,1.03,1.48,2.07-.9,1.46-1.38,3.15-1.38,4.91,0,2.51.97,4.86,2.73,6.63,1.76,1.77,4.1,2.75,6.6,2.75s4.83-.98,6.6-2.75c1.76-1.77,2.73-4.13,2.73-6.63,0-.78-.63-1.42-1.41-1.42h0Z"/>
  <path class="st0" d="M25.8,1.28c-1.69-1.7-4.44-1.7-6.13,0-.86.87-1.29,2.01-1.27,3.15.05,3.12-2.28,5.76-5.36,6.09-.72.08-1.41.39-1.96.94-1.27,1.28-1.27,3.35,0,4.63,1.27,1.28,3.33,1.28,4.6,0,.55-.55.86-1.25.93-1.97.33-3.1,2.95-5.44,6.05-5.39,1.13.02,2.27-.41,3.13-1.28,1.7-1.71,1.7-4.47,0-6.17Z"/>
</svg>