<?xml version="1.0" encoding="UTF-8"?>
<svg id="Layer_1" xmlns="http://www.w3.org/2000/svg" version="1.1" viewBox="0 0 1058 225">
  <!-- Generator: Adobe Illustrator 30.1.0, SVG Export Plug-In . SVG Version: 2.1.1 Build 136)  -->
  <defs>
    <style>
      .st0, .st1 {
        fill: #9ca3af;
      }

      .st1 {
        fill-rule: evenodd;
      }
    </style>
  </defs>
  <g id="_Слой_x5F_1" data-name="Слой_x5F_1">
    <g id="_929688768">
      <rect class="st0" x="241" y="12" width="44.65" height="201.82"/>
      <polygon class="st1" points="731 12 700 124 699 124 667 12 609 12 577 214 621 214 641 69 642 69 681 214 718 214 757 69 757 69 778 214 823 214 790 12 731 12"/>
      <path class="st1" d="M1005,214h47L972,12h-62l-80,202h44l16-41h99l16,41ZM940,48h0l34,87h-69l35-87Z"/>
      <path class="st1" d="M433,94v41h71v3c0,27-24,46-62,46s-68-21-68-70,32-70,69-70c29,0,50,5,74,17l21-34c-25-15-62-24-96-24-61,0-116,33-116,112,0,69,48,108,114,108,74,0,109-35,110-98,0-9,0-18-1-31h-116Z"/>
      <path class="st1" d="M151,96c-28-6-47-3-75-9-18-3-23-10-23-18,0-17,22-26,51-26,23,0,46,6,68,16l22-37C170,10,137,2,99,2,63,2,7,19,7,72c0,30,20,49,47,55,25,6,41,5,71,9,20,3,28,10,28,21,0,16-21,26-51,26-26,0-52-5-78-16l-18,38c32,14,65,20,93,20,61,0,102-27,102-71,0-30-18-51-50-58Z"/>
    </g>
  </g>
</svg>