<?xml version="1.0" encoding="UTF-8"?>
<svg id="Layer_1" xmlns="http://www.w3.org/2000/svg" version="1.1" viewBox="0 0 127.3 21.65">
  <!-- Generator: Adobe Illustrator 30.1.0, SVG Export Plug-In . SVG Version: 2.1.1 Build 136)  -->
  <defs>
    <style>
      .st0 {
        fill: #9ca3af;
      }
    </style>
  </defs>
  <g id="Layer_x5F_1">
    <g id="_519255888">
      <path class="st0" d="M6.23,12.66c-1.79-.7-3.34-1.3-3.34-2.7,0-1.61,1.47-2.19,2.84-2.19,2.37,0,3.64,1.31,3.65,1.33l.12.13,1.06-1.78-.07-.07c-.06-.07-1.53-1.68-4.71-1.68-2.53,0-5.25,1.33-5.25,4.27,0,2.77,2.5,3.76,4.71,4.64,1.79.71,3.34,1.32,3.34,2.71,0,1.55-1.44,2.24-2.87,2.24-2.7,0-4.34-1.75-4.36-1.77l-.11-.12-1.26,1.67.07.08s.5.57,1.44,1.11c.86.5,2.29,1.1,4.19,1.1,3.04,0,5.25-1.82,5.25-4.33,0-2.81-2.51-3.78-4.72-4.65Z"/>
      <path class="st0" d="M21.42,5.7c-4.51,0-8.04,3.47-8.04,7.89s3.53,8.04,8.04,8.04,8.04-3.53,8.04-8.04-3.53-7.89-8.04-7.89ZM27.11,13.59c0,3.34-2.5,5.96-5.69,5.96s-5.69-2.62-5.69-5.96,2.5-5.78,5.69-5.78,5.69,2.54,5.69,5.78Z"/>
      <path class="st0" d="M39.41.06s-.37-.06-.94-.06c-1.59,0-5.3.55-5.3,5.69v.58h-2.04v1.96h2.04v13.06h2.29v-13.06h3.83v-1.96h-3.83v-.58c0-1.35.42-3.61,3.22-3.61.4,0,.68.06.69.06l.16.03V.08l-.11-.02Z"/>
      <path class="st0" d="M50.2,19.43l-.17.04s-.27.06-.67.06c-1.23,0-3.29-.51-3.29-3.89v-7.37h3.82v-2h-3.82V1.88h-2.3v4.39h-2.03v2h2v7.58c0,5.05,3.41,5.8,5.44,5.8.55,0,.89-.06.9-.06l.11-.02v-2.13Z"/>
    </g>
    <g id="_519260016">
      <path class="st0" d="M54.85,16.75s1.67,1.67,4.15,1.67c1.07,0,2-.48,2-1.37,0-2.27-7.4-1.97-7.4-6.86,0-2.83,2.54-4.48,5.82-4.48s5.1,1.73,5.1,1.73l-1.4,2.8s-1.4-1.31-3.73-1.31c-.98,0-1.94.42-1.94,1.37,0,2.15,7.4,1.88,7.4,6.77,0,2.54-2.21,4.57-5.82,4.57-3.79,0-5.91-2.24-5.91-2.24l1.73-2.66Z"/>
      <path class="st0" d="M75.06,5.71c4.39,0,6.74,3.19,6.74,7.22,0,.45-.09,1.46-.09,1.46h-10.5c.24,2.66,2.3,4.03,4.57,4.03,2.45,0,4.39-1.67,4.39-1.67l1.46,2.72s-2.33,2.18-6.12,2.18c-5.04,0-8.18-3.64-8.18-7.97,0-4.68,3.19-7.97,7.73-7.97ZM77.99,11.8c-.06-2.06-1.34-3.16-3.01-3.16-1.94,0-3.28,1.19-3.64,3.16h6.65Z"/>
      <path class="st0" d="M85.62,6.07h3.64v2.63c0,.57-.06,1.07-.06,1.07h.06c.69-2.18,2.51-3.91,4.83-3.91.36,0,.69.06.69.06v3.73s-.39-.06-.9-.06c-1.61,0-3.43.93-4.15,3.19-.24.75-.33,1.58-.33,2.48v6.03h-3.79V6.07Z"/>
      <path class="st0" d="M96.43,6.07h4l3.16,9.43c.3.9.51,1.91.54,1.91h.06s.24-1.01.54-1.91l3.16-9.43h4l-5.46,15.22h-4.48l-5.52-15.22Z"/>
      <path class="st0" d="M120.55,5.71c4.39,0,6.74,3.19,6.74,7.22,0,.45-.09,1.46-.09,1.46h-10.5c.24,2.66,2.3,4.03,4.57,4.03,2.45,0,4.39-1.67,4.39-1.67l1.46,2.72s-2.33,2.18-6.12,2.18c-5.04,0-8.18-3.64-8.18-7.97,0-4.68,3.19-7.97,7.73-7.97ZM123.48,11.8c-.06-2.06-1.34-3.16-3.01-3.16-1.94,0-3.28,1.19-3.64,3.16h6.65Z"/>
    </g>
  </g>
</svg>